<svg width="159" height="84" viewBox="0 0 159 84" fill="none" xmlns="http://www.w3.org/2000/svg">
<path d="M157.906 81.0382C158.149 80.908 158.241 80.605 158.111 80.3615L155.988 76.3934C155.858 76.1499 155.555 76.0581 155.312 76.1883C155.068 76.3186 154.976 76.6216 155.107 76.8651L156.993 80.3922L153.466 82.2788C153.223 82.409 153.131 82.712 153.261 82.9555C153.391 83.199 153.694 83.2908 153.938 83.1606L157.906 81.0382ZM1.47322 0.836956C1.38318 0.575908 1.09856 0.437284 0.837509 0.52733C0.576462 0.617377 0.437836 0.901996 0.527878 1.16304L1.47322 0.836956ZM157.815 80.1188C141.883 75.2907 122.624 76.317 105.557 76.8246C97.0034 77.079 89.0031 77.2044 82.1982 76.4185C75.3842 75.6317 69.855 73.9393 66.1778 70.6282L65.5087 71.3714C69.4204 74.8935 75.2054 76.6177 82.0835 77.4119C88.9706 78.2073 97.0403 78.0783 105.587 77.8241C122.723 77.3145 141.787 76.3064 157.525 81.0758L157.815 80.1188ZM66.1778 70.6282C64.3866 69.0154 63.6618 67.1601 63.7418 65.1512C63.8228 63.1166 64.7323 60.8776 66.3115 58.5446C69.4702 53.8784 75.1981 48.998 81.6933 44.8917C88.1827 40.7891 95.3844 37.493 101.45 35.9665C104.484 35.2027 107.205 34.8896 109.396 35.1216C111.588 35.3536 113.183 36.1207 114.087 37.4506L114.914 36.8882C113.782 35.2243 111.855 34.3762 109.502 34.1271C107.148 33.878 104.3 34.2179 101.206 34.9967C95.0125 36.5554 87.713 39.9029 81.1589 44.0465C74.6105 48.1864 68.7525 53.1548 65.4834 57.9841C63.8487 60.3989 62.8338 62.8193 62.7426 65.1114C62.6503 67.4291 63.5054 69.5676 65.5087 71.3714L66.1778 70.6282ZM114.087 37.4506C114.984 38.7697 115.018 40.3225 114.268 42.0719C113.511 43.8379 111.967 45.7598 109.791 47.708C105.445 51.5989 98.702 55.4828 91.1905 58.3366C83.6802 61.1899 75.447 62.9959 68.1288 62.7693C60.8077 62.5426 54.4797 60.2877 50.6441 55.1073L49.8404 55.7024C53.9284 61.2236 60.6124 63.537 68.0979 63.7688C75.5863 64.0007 83.9542 62.1555 91.5457 59.2714C99.1358 56.3878 105.995 52.4482 110.458 48.453C112.686 46.4581 114.349 44.4214 115.187 42.466C116.033 40.4941 116.053 38.5629 114.914 36.8882L114.087 37.4506ZM50.6441 55.1073C46.7799 49.8884 46.0787 44.1999 47.3649 38.7785C48.6546 33.3421 51.9468 28.1688 56.0738 24.0493C60.2024 19.9281 65.1284 16.8994 69.6401 15.7149C74.1533 14.53 78.142 15.2066 80.609 18.3111L81.3919 17.6889C78.5815 14.1524 74.1058 13.5086 69.3862 14.7477C64.665 15.9872 59.5898 19.1267 55.3673 23.3415C51.1432 27.5581 47.7344 32.8887 46.3919 38.5476C45.0458 44.2215 45.7809 50.2197 49.8404 55.7024L50.6441 55.1073ZM80.609 18.3111C83.0939 21.438 83.052 25.2716 81.109 29.063C79.1594 32.8674 75.3096 36.5784 70.3005 39.3062C60.2904 44.7574 45.8042 46.2031 33.05 36.7674L32.4552 37.5714C45.581 47.2819 60.4963 45.7839 70.7788 40.1844C75.9161 37.3868 79.9354 33.5457 81.999 29.5191C84.0692 25.4794 84.1845 21.2031 81.3919 17.6889L80.609 18.3111ZM33.05 36.7674C20.1532 27.2263 12.2525 18.2223 7.57977 11.6161C5.24319 8.3127 3.71312 5.60788 2.76895 3.73404C2.29684 2.7971 1.97119 2.06784 1.76443 1.57532C1.66106 1.32906 1.58739 1.14197 1.53999 1.0177C1.51631 0.955569 1.49918 0.909136 1.48819 0.87886C1.4827 0.863722 1.47874 0.852623 1.47626 0.84562C1.47502 0.842119 1.47415 0.839641 1.47365 0.838195C1.4734 0.837472 1.47324 0.837006 1.47316 0.8368C1.47313 0.836696 1.47314 0.836735 1.47313 0.836683C1.47316 0.836787 1.47322 0.836956 1.00055 1C0.527878 1.16304 0.527985 1.16334 0.528107 1.16371C0.528183 1.16391 0.528336 1.16434 0.528473 1.16476C0.528763 1.16559 0.529144 1.16668 0.529617 1.16802C0.530548 1.17072 0.53186 1.17445 0.533539 1.1792C0.536911 1.18871 0.541763 1.20232 0.548172 1.21998C0.560989 1.25529 0.580002 1.30678 0.605621 1.374C0.656891 1.50844 0.734665 1.70579 0.842392 1.9624C1.05785 2.47562 1.39313 3.22588 1.8759 4.18402C2.84149 6.10034 4.39693 8.84796 6.76335 12.1936C11.4967 18.8855 19.472 27.9662 32.4552 37.5714L33.05 36.7674Z" fill="url(#paint0_linear_26_1360)"/>
<defs>
<linearGradient id="paint0_linear_26_1360" x1="157.67" y1="40.7987" x2="1.00055" y2="40.7987" gradientUnits="userSpaceOnUse">
<stop stop-color="#FE4700"/>
<stop offset="1" stop-color="#FA7506"/>
</linearGradient>
</defs>
</svg>
