<svg width="475" height="325" viewBox="0 0 475 325" fill="none" xmlns="http://www.w3.org/2000/svg">
<path d="M-17 0L-1.51688 3.2105C2.82261 4.11031 7.04588 5.50008 11.0717 7.35307L12.0628 7.80924C17.0539 10.1065 21.6472 13.1844 25.6698 16.9271L27.2067 18.357C30.0058 20.9613 32.3951 23.9739 34.2934 27.2927L34.4547 27.5748C36.8175 31.7057 38.3448 36.261 38.9494 40.9813C39.4364 44.783 39.3181 48.6379 38.5988 52.4026L36.6577 62.5617L34.9131 70.419C33.695 75.9045 33.0805 81.5068 33.0805 87.1259V91.5317C33.0805 93.3369 33.2469 95.1383 33.5776 96.9129C34.6866 102.865 37.6076 108.329 41.9409 112.557L42.6261 113.226C44.5104 115.065 46.6118 116.667 48.8838 117.997L51.8215 119.717C57.6309 123.118 63.9695 125.521 70.5736 126.826L82.3356 129.151L99.6561 131.464C105.517 132.246 111.271 133.693 116.805 135.776L120.146 137.034C125.179 138.928 129.903 141.562 134.16 144.848C142.018 150.914 148.058 159.023 151.619 168.289L152.664 171.008C154.386 175.489 155.603 180.148 156.292 184.899L161.647 221.829C162.871 230.263 166.142 238.269 171.176 245.146L171.922 246.165C174.554 249.76 177.717 252.934 181.304 255.577C186.617 259.491 192.744 262.157 199.229 263.377L205.594 264.575C209.998 265.403 214.47 265.82 218.952 265.82H261.745L292.757 266.746C307.996 267.202 323.144 269.253 337.955 272.866C353.872 276.748 369.319 282.421 383.968 289.757C403.799 299.688 422.028 312.592 437.981 327.999L440.879 330.798L475 370H-17V0Z" fill="#4DA1D4"/>
</svg>
