<svg width="763" height="722" viewBox="0 0 763 722" fill="none" xmlns="http://www.w3.org/2000/svg">
<path d="M246.5 -310L277.362 11.3321L406.107 -284.745L336.066 30.3875L550.091 -211.453L386.002 66.6332L664.357 -97.2972L422.283 116.521L737.721 46.5472L441.357 175.168L763 206L441.357 236.832L737.721 365.453L422.283 295.479L664.357 509.297L386.002 345.367L550.091 623.453L336.066 381.612L406.107 696.745L277.362 400.668L246.5 722L215.638 400.668L86.8927 696.745L156.934 381.612L-57.0911 623.453L106.998 345.367L-171.357 509.297L70.7174 295.479L-244.721 365.453L51.6435 236.832L-270 206L51.6435 175.168L-244.721 46.5472L70.7174 116.521L-171.357 -97.2972L106.998 66.6332L-57.0911 -211.453L156.934 30.3875L86.8927 -284.745L215.638 11.3321L246.5 -310Z" fill="#087BC3" fill-opacity="0.1"/>
</svg>
