<svg width="738" height="828" viewBox="0 0 738 828" fill="none" xmlns="http://www.w3.org/2000/svg">
<path opacity="0.3" d="M100.762 597.388C97.1215 576.657 91.3417 555.259 85.7486 534.602C84.212 528.972 82.6838 523.283 81.2132 517.603C71.9487 482.509 64.1025 446.967 67.5127 412.523C68.7523 399.928 71.4988 387.492 76.2707 375.291C76.5534 374.56 76.8276 373.887 77.1103 373.155C80.127 365.75 83.7846 358.794 87.9679 352.271C92.3254 345.357 97.307 339.009 102.641 333.069C130.387 302.455 169.389 284.289 201.404 273.724C203.994 272.912 206.591 272.041 209.181 271.228C218.845 268.293 228.658 265.558 238.222 262.906C249.815 259.657 261.581 256.433 273.135 252.643C294.379 245.744 314.92 237.198 332.916 224.302C367.205 199.688 388.811 158.26 392.679 115.802C363.363 104.12 338.144 84.8918 321.363 60.2336C318.159 55.5498 315.031 50.3424 314.072 44.3802C312.841 36.2394 316.132 28.1607 323.13 22.1056C332.013 14.4226 344.956 11.607 355.289 15.0082C376.401 21.9939 386.697 45.1167 390.966 58.2737C396.685 76.038 398.76 94.5807 397.623 112.954C415.704 119.738 435.336 123.538 455.401 123.955C464.379 124.129 473.211 123.687 481.715 122.664C482.91 122.54 484.113 122.358 485.308 122.234C532.052 116.006 571.305 94.4895 597.74 75.747C609.012 67.8166 619.702 59.0294 629.786 49.5598C686.732 -3.8518 724.21 -79.2218 733.411 -157.21L737.733 -156.583C728.322 -77.5553 690.355 -1.24625 632.665 52.8298C622.45 62.3991 611.627 71.286 600.28 79.3244C573.392 98.3574 533.371 120.297 485.795 126.583C484.114 126.815 482.432 127.046 480.702 127.211C472.453 128.093 464.033 128.535 455.352 128.344C435.164 127.969 415.474 124.161 397.253 117.535C393.16 160.733 371.001 202.318 335.456 227.879C317.056 241.133 296.144 249.803 274.719 256.735C263.041 260.566 251.143 263.89 239.377 267.114C231.832 269.228 224.106 271.374 216.47 273.712C211.869 275.005 207.251 276.415 202.74 277.899C172.21 287.966 135.122 305.103 108.158 333.573C101.006 341.091 94.6088 349.491 89.2133 358.691C86.1718 363.834 83.4508 369.203 81.1569 374.871C63.3241 418.273 72.1744 465.548 84.2478 512.102C86.1004 519.204 88.0598 526.381 89.9785 533.433C95.5632 554.149 101.384 575.671 105.106 596.652C107.019 607.387 108.266 618.263 108.984 629.122C110.359 650.059 109.534 671.152 106.741 692.018C96.9616 765.882 61.9952 836.923 7.89345 887.36C6.52963 888.648 5.10814 889.927 3.69516 891.148C2.45415 890.374 1.23004 889.483 0.0719291 888.543C1.69157 887.114 3.31966 885.627 4.94774 884.14C58.3803 834.259 92.8658 764.1 102.452 691.158C105.245 670.292 105.947 649.241 104.564 628.362C103.835 617.977 102.57 607.639 100.762 597.388ZM386.817 59.6976C382.792 47.2891 373.224 25.6387 353.914 19.2116C352.622 18.7864 351.256 18.4693 349.815 18.2602C341.747 17.0892 332.594 19.7418 325.935 25.4895C320.018 30.5727 317.376 37.0224 318.415 43.6498C319.195 48.8136 322.053 53.4472 324.962 57.7316C341.023 81.275 365.05 99.7953 393.057 111.169C394.117 93.7286 392.128 76.2144 386.817 59.6976Z" fill="#3BA9EE"/>
</svg>
