<svg width="1026" height="644" viewBox="0 0 1026 644" fill="none" xmlns="http://www.w3.org/2000/svg">
<path opacity="0.3" d="M79 -18H1063V564C1045.41 564 1027.9 561.655 1010.93 557.027L1003.5 555L998.22 553.09C970.621 543.108 944.992 528.353 922.5 509.5L920.634 507.543C901.601 487.573 884.791 465.597 870.5 442L849.5 400.5L825.5 352L804.372 317.03C799.14 308.369 792.977 300.306 785.993 292.984L783.567 290.441C771.657 277.955 757.243 268.126 741.269 261.599C726.563 255.59 710.83 252.5 694.944 252.5H677L625.5 259L601.751 260.431C589.96 261.141 578.126 260.432 566.504 258.319C556.197 256.445 546.12 253.478 536.442 249.469L516 241L503.91 235.144C490.698 228.744 478.419 220.576 467.412 210.863C461.479 205.628 455.938 199.965 450.833 193.918L442.99 184.627C431.682 171.231 421.468 156.947 412.449 141.914L406.5 132L389 95L370.5 56L360.428 39.9877C354.167 30.034 346.7 20.8914 338.198 12.7674L333.24 8.02925C330.087 5.01638 326.659 2.30554 323 -0.0677071C314.437 -5.62167 304.762 -9.23095 294.654 -10.6414L288.5 -11.5C271.616 -11.5 254.849 -8.70841 238.875 -3.23818L226.5 1L201.775 10.4191C190.315 14.7847 178.299 17.5168 166.078 18.5352L162.133 18.8639C157.054 19.2871 151.948 19.2593 146.875 18.7806C134.44 17.6076 122.409 13.7469 111.613 7.46592L109.021 5.95765C103.354 2.66057 98.0257 -1.18659 93.1129 -5.52811L79 -18Z" fill="white"/>
<path opacity="0.4" d="M867.709 397.458L867.681 397.402L867.648 397.348L843.132 356.796C837 346.654 829.779 337.212 821.595 328.638L818.793 325.702C804.818 311.061 787.908 299.538 769.171 291.887C751.927 284.846 733.479 281.224 714.853 281.224H694.02H693.926L693.833 281.236L634.112 288.769L606.597 290.425C593.033 291.242 579.42 290.426 566.051 287.997C554.194 285.843 542.599 282.432 531.465 277.822L507.783 268.017L493.784 261.241C478.578 253.881 464.444 244.484 451.773 233.311C444.941 227.287 438.56 220.769 432.682 213.811L423.583 203.04C410.51 187.563 398.702 171.06 388.273 153.69L381.41 142.26L361.132 99.415L361.131 99.4135L339.661 54.1815L339.623 54.1011L339.575 54.0257L327.889 35.4597C320.555 23.8076 311.809 13.1059 301.852 3.5973L296.101 -1.89433C292.373 -5.45463 288.319 -8.65783 283.993 -11.4619C273.873 -18.022 262.438 -22.2848 250.493 -23.9504L243.346 -24.947L243.243 -24.9613H243.139C223.379 -24.9613 203.755 -21.6962 185.059 -15.2979L170.698 -10.3831L170.674 -10.3748L170.65 -10.3658L141.957 0.557596C128.787 5.57135 114.978 8.709 100.935 9.8785L96.356 10.2598C90.5509 10.7432 84.7143 10.7114 78.9148 10.1646C64.6991 8.82443 50.944 4.41335 38.6002 -2.76373L35.5976 -4.50949C29.1044 -8.28482 22.9988 -12.6903 17.3689 -17.6622L3.96454 -29.5H1140.5V642.495C1120.73 642.365 1101.05 639.667 1081.97 634.466L1073.4 632.131L1067.32 629.933C1035.49 618.427 1005.92 601.423 979.967 579.695L977.856 577.481C955.857 554.416 936.426 529.033 919.903 501.776L895.563 453.708L895.557 453.696L867.709 397.458Z" stroke="white" stroke-width="3"/>
</svg>
