<svg width="290" height="572" viewBox="0 0 290 572" fill="none" xmlns="http://www.w3.org/2000/svg">
<path opacity="0.3" d="M132.049 5L136.054 17.4556C137.666 22.4674 139.752 27.3141 142.284 31.9299V31.9299C147.019 40.5614 153.255 48.2793 160.699 54.7212L161.079 55.0495C165.536 58.9059 170.379 62.2918 175.531 65.153L187.822 71.9784L206.161 79.8097L216.338 83.3853C224.747 86.3394 232.608 90.6651 239.603 96.187V96.187C243.517 99.2761 247.136 102.721 250.414 106.478L254.503 111.164C258.314 115.531 261.694 120.256 264.596 125.274V125.274C268.974 132.844 272.225 141.012 274.246 149.52L274.432 150.303C275.927 156.594 276.681 163.037 276.681 169.503V170.329C276.681 179.836 274.956 189.264 271.588 198.155V198.155C269.32 204.144 266.329 209.832 262.68 215.095L262.013 216.056C257.943 221.926 253.155 227.263 247.76 231.944L244.729 234.574C239.845 238.811 234.316 242.24 228.35 244.732V244.732C220.942 247.826 212.987 249.419 204.958 249.419V249.419C199.61 249.419 194.282 248.713 189.119 247.319L187.031 246.755C179.411 244.696 172.153 241.479 165.511 237.216L164.779 236.747C158.491 232.711 152.78 227.842 147.8 222.271L140.935 214.591L126.756 194.6L120.964 186.928C116.654 181.217 111.565 176.137 105.847 171.836L102.063 168.99C97.7582 165.752 92.9435 163.254 87.8172 161.598V161.598C79.5206 158.919 70.6549 158.525 62.1535 160.459L60.4625 160.844C55.7743 161.91 51.2469 163.589 46.9967 165.837L44.4013 167.209C37.7067 170.75 31.5708 175.258 26.1915 180.589L23.703 183.055C18.341 188.368 14.0327 194.648 11.0054 201.563V201.563C8.44059 207.422 6.83144 213.653 6.23917 220.021L4.99999 233.345V242.668C4.99999 252.31 6.75166 261.871 10.1697 270.886V270.886C12.2281 276.316 14.8745 281.504 18.0616 286.358L19.0603 287.879C23.4085 294.501 28.5584 300.56 34.3927 305.92L42.4342 313.307L48.1737 317.329C56.6443 323.264 66.0138 327.8 75.9239 330.762V330.762C81.5667 332.448 87.3519 333.615 93.2073 334.247L103.501 335.358H129.213L151.4 333.297L161.631 331.367C169.016 329.973 176.575 329.272 184.091 329.272V329.272C191.223 329.272 198.397 329.91 205.415 331.179L208.508 331.738C214.24 332.775 219.855 334.378 225.27 336.525V336.525C230.918 338.763 236.318 341.581 241.386 344.933L251.118 351.371C254.29 353.469 257.286 355.824 260.074 358.412V358.412C266.549 364.421 271.822 371.606 275.613 379.586L277.021 382.549C279.559 387.891 281.468 393.51 282.709 399.292V399.292C284.229 406.369 284.735 413.626 284.212 420.845L284.171 421.403C283.593 429.389 281.772 437.236 278.775 444.661V444.661C276.256 450.903 272.929 456.787 268.879 462.164L266.409 465.443C262.308 470.887 257.533 475.789 252.198 480.031L252.006 480.184C246.798 484.324 241.086 487.787 235.006 490.49L232.653 491.536C227.371 493.884 221.781 495.465 216.051 496.232L214.42 496.45C206.982 497.446 199.418 496.852 192.227 494.707V494.707C186.188 492.906 180.518 490.043 175.484 486.253L164.757 478.176L146.229 460.247L144.229 458.193C136.893 450.66 128.663 444.053 119.722 438.519L114.803 435.475C112.188 433.856 109.447 432.451 106.607 431.274L105.444 430.791C97.5878 427.533 89.054 426.246 80.5864 427.042V427.042C74.6068 427.604 68.7692 429.194 63.331 431.743L62.9643 431.915C56.1574 435.106 50.0845 439.67 45.1276 445.322L42.684 448.108C38.3857 453.009 34.8978 458.565 32.3523 464.566V464.566C29.5171 471.251 27.8937 478.386 27.5582 485.639L27.1972 493.445C27.02 497.274 27.1357 501.111 27.543 504.923L27.634 505.774C28.6669 515.438 31.6693 524.788 36.456 533.247L36.7552 533.776C40.019 539.544 44.1197 544.796 48.9237 549.361V549.361C53.8949 554.085 59.5614 558.019 65.7255 561.025L77.9777 567" stroke="#3BA9EE" stroke-width="10" stroke-miterlimit="1" stroke-linecap="round"/>
</svg>
