<svg width="1066" height="538" viewBox="0 0 1066 538" fill="none" xmlns="http://www.w3.org/2000/svg">
<path opacity="0.3" d="M7 292.783L30.3049 285.276C39.6934 282.252 48.7718 278.339 57.4164 273.589V273.589C73.5691 264.714 88.0088 253.028 100.057 239.081L100.693 238.345C107.908 229.993 114.241 220.919 119.592 211.267L132.376 188.208L147.035 153.822L153.734 134.723C159.26 118.969 167.354 104.237 177.687 91.1245V91.1245C183.473 83.7829 189.925 76.9929 196.963 70.8414L205.735 63.1737C213.904 56.0335 222.752 49.6956 232.14 44.257V44.257C246.302 36.0524 261.598 29.953 277.521 26.1645L278.992 25.8143C290.767 23.0127 302.829 21.5976 314.932 21.5976H316.465C334.269 21.5976 351.924 24.834 368.571 31.1491V31.1491C379.776 35.4001 390.42 41.0065 400.263 47.8432L402.058 49.0894C413.055 56.7274 423.053 65.7117 431.82 75.8327L436.725 81.4961C444.663 90.6609 451.087 101.035 455.753 112.225V112.225C461.544 126.112 464.525 141.028 464.525 156.074V156.074C464.525 166.101 463.203 176.096 460.593 185.777L459.538 189.687C455.685 203.978 449.66 217.592 441.675 230.054L440.809 231.406C433.251 243.201 424.13 253.917 413.693 263.262L399.33 276.122L361.91 302.708L347.564 313.555C336.863 321.645 327.347 331.193 319.292 341.92L313.98 348.995C307.913 357.075 303.233 366.108 300.132 375.724V375.724C295.118 391.277 294.381 407.893 298 423.829L298.721 427.004C300.718 435.797 303.862 444.289 308.072 452.263L310.634 457.116C317.263 469.673 325.708 481.184 335.694 491.278L340.312 495.947C350.249 505.99 361.997 514.063 374.936 519.736V519.736C385.908 524.548 397.58 527.566 409.508 528.678L434.435 531H451.876C469.931 531 487.836 527.715 504.715 521.305V521.305C514.874 517.447 524.581 512.487 533.661 506.515L536.523 504.633C548.915 496.483 560.252 486.832 570.276 475.901L584.115 460.811L591.634 450.063C602.751 434.172 611.245 416.598 616.791 398.013V398.013C619.947 387.436 622.13 376.593 623.312 365.619L625.392 346.311V298.1L621.535 256.5L617.921 237.318C615.313 223.469 614 209.295 614 195.203V195.203C614 181.833 615.195 168.382 617.57 155.224L618.618 149.416C620.558 138.673 623.558 128.149 627.575 117.998V117.998C631.767 107.406 637.043 97.2756 643.321 87.7697L655.372 69.5208C659.297 63.5779 663.701 57.9662 668.542 52.7419V52.7419C679.793 40.5977 693.252 30.7049 708.201 23.5913L713.735 20.9577C723.731 16.2012 734.245 12.6232 745.067 10.2958V10.2958C758.316 7.44645 771.903 6.49777 785.42 7.47832L786.448 7.55293C801.404 8.63793 816.099 12.0526 830.001 17.6735V17.6735C841.681 22.396 852.691 28.6313 862.748 36.2194L868.884 40.8482C879.083 48.5438 888.265 57.5027 896.209 67.5104L896.481 67.8531C904.238 77.6248 910.724 88.3408 915.784 99.7445L917.737 104.145C922.134 114.053 925.095 124.537 926.53 135.281L926.94 138.346C928.803 152.287 927.691 166.464 923.678 179.943V179.943C920.306 191.271 914.943 201.907 907.842 211.355L892.732 231.456L859.17 266.196L855.339 269.933C841.229 283.696 828.856 299.134 818.495 315.902L812.802 325.115C809.771 330.021 807.14 335.162 804.934 340.491L804.034 342.664C797.935 357.397 795.525 373.397 797.014 389.274V389.274C798.066 400.487 801.044 411.434 805.818 421.635L806.133 422.308C812.108 435.077 820.659 446.472 831.25 455.776L836.46 460.353C845.626 468.405 856.02 474.941 867.249 479.711V479.711C879.766 485.029 893.13 488.074 906.715 488.704L921.312 489.38C928.481 489.712 935.665 489.495 942.801 488.732L944.37 488.563C962.475 486.625 979.988 480.993 995.828 472.015L996.793 471.468C1007.6 465.342 1017.44 457.648 1025.99 448.636V448.636C1034.83 439.32 1042.19 428.703 1047.81 417.156L1059 394.167" stroke="#3BA9EE" stroke-width="14" stroke-miterlimit="1" stroke-linecap="round"/>
</svg>
