<svg width="1006" height="790" viewBox="0 0 1006 790" fill="none" xmlns="http://www.w3.org/2000/svg">
<path opacity="0.3" d="M0 101L28.0209 106.954C35.9802 108.646 43.7168 111.253 51.0762 114.725L52.6108 115.448C61.8104 119.788 70.2527 125.578 77.6143 132.597L80.2119 135.074C85.3746 139.997 89.7679 145.668 93.2445 151.896L93.4468 152.259C97.7749 160.013 100.566 168.53 101.668 177.342C102.551 184.405 102.336 191.562 101.031 198.559L97.5 217.5L94.3338 232.113C92.1176 242.342 91 252.778 91 263.244V271.491C91 274.824 91.2999 278.149 91.896 281.428C93.9172 292.544 99.2802 302.78 107.27 310.77L108.27 311.77C111.744 315.244 115.63 318.278 119.842 320.805L124.973 323.884C135.58 330.248 147.195 334.755 159.318 337.21L180.5 341.5L211.849 345.79C222.58 347.258 233.104 349.969 243.209 353.866L248.938 356.076C258.259 359.671 266.985 364.652 274.82 370.85C289.004 382.07 299.856 396.949 306.206 413.883L308.339 419.572C311.437 427.833 313.624 436.407 314.86 445.142L324.664 514.427C326.856 529.914 332.747 544.645 341.838 557.373L343.41 559.575C348.109 566.153 353.782 571.978 360.234 576.85C369.949 584.186 381.215 589.198 393.168 591.502L404.405 593.669C412.45 595.219 420.624 596 428.817 596H506.5L562.685 597.72C590.482 598.571 618.106 602.402 645.085 609.146C673.933 616.358 702.099 626.98 728.554 640.557C764.421 658.965 797.58 682.932 826.233 711.292L832 717L894 790H0V101Z" fill="white"/>
<path opacity="0.4" d="M186.851 279.668L186.898 279.677L186.946 279.684L222.877 284.64C235.107 286.327 247.098 289.439 258.605 293.912L265.051 296.418C275.673 300.548 285.608 306.262 294.519 313.367C310.549 326.148 322.795 343.052 329.943 362.266L332.477 369.077C335.983 378.501 338.457 388.277 339.855 398.233L351.133 478.565C353.671 496.638 360.501 513.839 371.053 528.729L372.938 531.388C378.388 539.079 384.977 545.896 392.477 551.604C403.833 560.247 417.026 566.158 431.034 568.88L443.806 571.362C453.148 573.177 462.644 574.091 472.161 574.091H561.263H561.285L625.657 576.078C657.49 577.06 689.123 581.48 720.006 589.262C752.973 597.569 785.226 609.836 815.424 625.457C856.388 646.648 894.333 674.259 926.981 706.83L933.74 713.573L1002.77 795.5H-18.5V1.8553L11.8011 8.34533C20.8498 10.2834 29.6418 13.2694 37.9992 17.2428L39.6604 18.0326C50.1216 23.0063 59.7127 29.6339 68.0645 37.6603L70.9737 40.4562C76.8186 46.0734 81.7876 52.5359 85.7147 59.6278L85.9139 59.9875C90.8008 68.8125 93.9503 78.4927 95.1918 88.5038C96.1854 96.5152 95.9437 104.632 94.4754 112.57L90.4249 134.467L86.7972 151.343C84.2305 163.284 82.9362 175.463 82.9362 187.676V197.232C82.9362 201.165 83.2875 205.091 83.9858 208.962C86.3615 222.132 92.6801 234.27 102.106 243.77L103.164 244.837C107.255 248.96 111.837 252.566 116.808 255.571L122.619 259.086C134.958 266.548 148.486 271.836 162.614 274.72L186.851 279.668Z" stroke="white" stroke-width="3"/>
</svg>
