<svg width="238" height="390" viewBox="0 0 238 390" fill="none" xmlns="http://www.w3.org/2000/svg">
<path opacity="0.3" d="M18.3456 421.734L24.4952 418.993C54.2811 405.734 85.0977 392.029 109.215 369.998C138.967 342.828 156.797 304.146 158.102 263.922C158.412 253.678 157.656 244.084 155.801 235.279C136.493 239.151 116.945 236.992 100.557 228.495C93.2398 224.692 83.6547 217.976 79.4978 207.458C75.3408 196.939 78.4327 184.811 86.678 179.226C92.4153 175.32 100.626 174.498 109.73 176.828C126.461 181.11 141.852 193.959 150.853 211.158C154.083 217.325 156.591 224.007 158.377 231.202C170.058 228.426 181.567 223.356 192.045 216.092C215.372 199.955 234.13 173.367 246.326 139.242C258.763 104.397 261.786 69.9293 255.087 39.5729C251.961 25.3541 246.533 11.9233 239.318 0H243.303C250.209 11.8205 255.396 24.9429 258.454 38.8191C265.29 69.8265 262.198 104.945 249.556 140.372C237.119 175.183 217.915 202.353 194.004 218.902C183.147 226.439 171.26 231.647 159.133 234.525C161.057 243.639 161.847 253.506 161.504 264.025C160.198 305.174 141.955 344.713 111.517 372.534C86.9872 394.907 55.9302 408.749 25.9038 422.145L19.7542 424.852C13.1924 427.799 6.56183 430.814 0 434V430.163C6.11522 427.25 12.2648 424.475 18.3456 421.734ZM147.83 212.734C139.241 196.391 124.675 184.194 108.871 180.151C104.165 178.918 95.2325 177.581 88.602 182.07C80.9751 187.243 79.6009 198.413 82.6929 206.19C86.4719 215.749 95.3698 221.951 102.138 225.446C117.804 233.6 136.527 235.622 155.01 231.921C153.327 225.035 150.922 218.627 147.83 212.734Z" fill="#3BA9EE"/>
</svg>
