<svg width="928" height="828" viewBox="0 0 928 828" fill="none" xmlns="http://www.w3.org/2000/svg">
<path opacity="0.3" d="M771.507 588.47C771.014 567.644 772.485 545.741 773.919 524.593C774.322 518.827 774.705 513.006 775.033 507.205C777.236 471.325 777.962 435.296 767.88 402.597C764.2 390.638 759.076 379.136 752.014 368.269C751.594 367.617 751.193 367.02 750.773 366.368C746.369 359.796 741.426 353.79 736.052 348.308C730.431 342.483 724.31 337.332 717.923 332.647C684.758 308.553 643.005 298.788 609.584 294.987C606.889 294.72 604.174 294.398 601.479 294.131C591.44 293.23 581.295 292.552 571.409 291.905C559.419 291.087 547.265 290.328 535.208 288.979C513.053 286.564 491.263 282.411 471.115 273.53C432.717 256.568 403.446 220.757 391.347 180.381C417.77 163.162 438.704 139.453 450.311 112.177C452.532 106.993 454.576 101.316 454.348 95.3443C453.96 87.2059 449.155 80.0372 441.116 75.5756C430.913 69.9148 417.687 69.7885 408.232 75.1635C388.925 86.1804 383.368 110.664 381.763 124.275C379.64 142.644 381.238 161.035 385.948 178.615C369.569 188.827 351.086 196.458 331.518 200.897C322.76 202.871 314.024 204.22 305.495 204.938C304.3 205.058 303.086 205.124 301.892 205.245C254.895 208.608 212.241 195.646 182.684 182.796C170.092 177.376 157.902 171.008 146.173 163.857C79.9484 123.538 28.4905 58.0203 4.21273 -15.7229L0.102589 -14.2456C24.7891 60.4626 76.9101 126.793 143.994 167.606C155.871 174.827 168.21 181.265 180.896 186.774C210.955 199.815 254.443 213.033 302.267 209.558C303.958 209.444 305.65 209.33 307.377 209.142C315.628 208.338 323.96 207.073 332.425 205.142C352.122 200.719 370.66 193.068 387.208 182.981C399.672 224.029 429.514 259.881 469.328 277.508C489.942 286.655 512.119 290.853 534.459 293.263C546.645 294.628 558.948 295.457 571.102 296.216C578.905 296.747 586.891 297.274 594.827 298.005C599.586 298.333 604.384 298.77 609.093 299.302C640.963 302.92 680.639 312.072 712.618 334.245C721.095 340.094 729.004 346.949 736.089 354.781C740.075 359.155 743.79 363.812 747.146 368.845C773.107 407.328 773.694 454.93 770.984 502.483C770.56 509.739 770.046 517.09 769.548 524.311C768.134 545.514 766.647 567.546 767.109 588.63C767.336 599.421 768.245 610.214 769.667 620.884C772.419 641.454 777.357 661.733 784.177 681.397C808.214 751.026 856.365 812.853 919.222 850.861C920.809 851.835 922.452 852.789 924.075 853.688C925.139 852.688 926.163 851.579 927.113 850.434C925.247 849.375 923.362 848.261 921.476 847.147C859.383 809.544 811.876 748.474 788.209 679.701C781.388 660.037 776.58 639.773 773.847 619.258C772.528 609.045 771.743 598.77 771.507 588.47ZM386.105 124.821C387.618 111.984 392.75 89.0743 410.402 78.9613C411.584 78.2894 412.86 77.7072 414.23 77.2148C421.902 74.4571 431.385 75.1876 439.032 79.4194C445.821 83.1568 449.672 88.8769 449.952 95.5097C450.198 100.672 448.306 105.738 446.296 110.476C435.177 136.526 415.271 159.31 390.07 175.966C385.618 159.275 384.137 141.899 386.105 124.821Z" fill="#3BA9EE"/>
</svg>
