<svg width="605" height="375" viewBox="0 0 605 375" fill="none" xmlns="http://www.w3.org/2000/svg">
<path d="M664 0L642.625 3.77231C637.083 4.75042 631.651 6.27714 626.411 8.32996L623.886 9.31913C617.735 11.7287 611.976 15.0382 606.797 19.1392L603.769 21.537C600.37 24.2286 597.409 27.4305 594.99 31.029L594.283 32.0812C591.283 36.5451 589.312 41.6195 588.511 46.9379C587.842 51.3838 588.004 55.9153 588.989 60.3022L591.584 71.8614L593.962 80.9759C595.588 87.2107 596.412 93.6278 596.412 100.071V104.929C596.412 107.14 596.173 109.344 595.7 111.503C594.236 118.192 590.58 124.201 585.312 128.576L583.165 130.359C580.863 132.271 578.348 133.911 575.669 135.245L570.761 137.691C563.146 141.486 555.011 144.132 546.621 145.543L529.937 148.349L506.044 151.064C498.472 151.925 491.002 153.529 483.744 155.854L477.724 157.783C471.711 159.709 465.987 162.443 460.71 165.91C449.652 173.175 440.89 183.435 435.445 195.493L435.282 195.854C432.788 201.377 431.011 207.196 429.993 213.17L423.171 253.207C421.348 263.905 416.646 273.905 409.569 282.132C405.661 286.677 401.048 290.634 395.97 293.819C389.084 298.137 381.34 301.061 373.315 302.346L363.318 303.947C357.551 304.87 351.719 305.334 345.878 305.334H287.808L245.266 306.415C225.142 306.927 205.106 309.243 185.397 313.335L183.203 313.79C162.872 318.012 143.009 324.239 123.907 332.381C96.4054 344.103 70.7181 359.693 47.6233 378.677L46.0492 379.971L0 425H664V0Z" fill="#4DA1D4"/>
</svg>
