<svg width="149" height="390" viewBox="0 0 149 390" fill="none" xmlns="http://www.w3.org/2000/svg">
<path opacity="0.3" d="M130.654 421.734L124.505 418.993C94.7189 405.734 63.9023 392.029 39.785 369.998C10.0334 342.828 -7.79686 304.146 -9.10236 263.922C-9.41155 253.678 -8.6558 244.084 -6.80062 235.279C12.507 239.151 32.0551 236.992 48.4425 228.495C55.7602 224.692 65.3453 217.976 69.5022 207.458C73.6592 196.939 70.5673 184.811 62.322 179.226C56.5847 175.32 48.3738 174.498 39.2697 176.828C22.5387 181.11 7.14758 193.959 -1.85347 211.158C-5.08286 217.325 -7.59079 224.007 -9.37726 231.202C-21.058 228.426 -32.5669 223.356 -43.0453 216.092C-66.3724 199.955 -85.1303 173.367 -97.3264 139.242C-109.763 104.397 -112.786 69.9293 -106.087 39.5729C-102.961 25.3541 -97.5326 11.9233 -90.318 0H-94.3032C-101.209 11.8205 -106.396 24.9429 -109.454 38.8191C-116.29 69.8265 -113.198 104.945 -100.556 140.372C-88.1192 175.183 -68.9147 202.353 -45.0035 218.902C-34.1473 226.439 -22.2604 231.647 -10.1331 234.525C-12.057 243.639 -12.8471 253.506 -12.5036 264.025C-11.1981 305.174 7.04456 344.713 37.4832 372.534C62.0128 394.907 93.0698 408.749 123.096 422.145L129.246 424.852C135.808 427.799 142.438 430.814 149 434V430.163C142.885 427.25 136.735 424.475 130.654 421.734ZM1.1698 212.734C9.75859 196.391 24.3252 184.194 40.1285 180.151C44.8352 178.918 53.7675 177.581 60.398 182.07C68.0249 187.243 69.3991 198.413 66.3071 206.19C62.5281 215.749 53.6302 221.951 46.8622 225.446C31.1963 233.6 12.4727 235.622 -6.01041 231.921C-4.32701 225.035 -1.92216 218.627 1.1698 212.734Z" fill="#3BA9EE"/>
</svg>
