<svg width="928" height="828" viewBox="0 0 928 828" fill="none" xmlns="http://www.w3.org/2000/svg">
<path opacity="0.3" d="M155.984 588.47C156.477 567.644 155.005 545.741 153.572 524.593C153.169 518.827 152.786 513.006 152.458 507.205C150.255 471.325 149.529 435.296 159.611 402.597C163.291 390.638 168.415 379.136 175.477 368.269C175.897 367.617 176.297 367.02 176.717 366.368C181.121 359.796 186.065 353.79 191.439 348.308C197.059 342.483 203.181 337.332 209.568 332.647C242.733 308.553 284.486 298.788 317.907 294.987C320.602 294.72 323.316 294.398 326.011 294.131C336.051 293.23 346.195 292.552 356.082 291.905C368.071 291.087 380.225 290.328 392.282 288.979C414.437 286.564 436.227 282.411 456.375 273.53C494.774 256.568 524.044 220.757 536.143 180.381C509.72 163.162 488.787 139.453 477.179 112.177C474.958 106.993 472.915 101.316 473.143 95.3443C473.531 87.2059 478.335 80.0372 486.374 75.5756C496.577 69.9148 509.804 69.7885 519.258 75.1635C538.566 86.1804 544.122 110.664 545.728 124.275C547.851 142.644 546.253 161.035 541.543 178.615C557.922 188.827 576.405 196.458 595.973 200.897C604.731 202.871 613.467 204.22 621.996 204.938C623.19 205.058 624.404 205.124 625.598 205.245C672.595 208.608 715.25 195.646 744.807 182.796C757.399 177.376 769.588 171.008 781.317 163.857C847.542 123.538 899 58.0203 923.278 -15.7229L927.388 -14.2456C902.701 60.4626 850.58 126.793 783.497 167.606C771.619 174.827 759.281 181.265 746.595 186.774C716.536 199.815 673.047 213.033 625.224 209.558C623.532 209.444 621.84 209.33 620.113 209.142C611.863 208.338 603.53 207.073 595.065 205.142C575.368 200.719 556.831 193.068 540.283 182.981C527.819 224.029 497.977 259.881 458.163 277.508C437.549 286.655 415.371 290.853 393.032 293.263C380.845 294.628 368.542 295.457 356.388 296.216C348.586 296.747 340.6 297.274 332.664 298.005C327.905 298.333 323.106 298.77 318.398 299.302C286.528 302.92 246.852 312.072 214.872 334.245C206.396 340.094 198.486 346.949 191.402 354.781C187.416 359.155 183.7 363.812 180.344 368.845C154.383 407.328 153.796 454.93 156.506 502.483C156.93 509.739 157.444 517.09 157.943 524.311C159.357 545.514 160.844 567.546 160.382 588.63C160.154 599.421 159.245 610.214 157.824 620.884C155.071 641.454 150.134 661.733 143.313 681.397C119.277 751.026 71.126 812.853 8.26873 850.861C6.68105 851.835 5.03852 852.789 3.4157 853.688C2.35195 852.688 1.32751 851.579 0.377461 850.434C2.24328 849.375 4.1288 848.261 6.01431 847.147C68.1073 809.544 115.615 748.474 139.282 679.701C146.102 660.037 150.91 639.773 153.643 619.258C154.962 609.045 155.747 598.77 155.984 588.47ZM541.385 124.821C539.873 111.984 534.741 89.0743 517.088 78.9613C515.907 78.2894 514.631 77.7072 513.261 77.2148C505.588 74.4571 496.105 75.1876 488.458 79.4194C481.669 83.1568 477.819 88.8769 477.539 95.5097C477.292 100.672 479.184 105.738 481.194 110.476C492.314 136.526 512.219 159.31 537.421 175.966C541.873 159.275 543.353 141.899 541.385 124.821Z" fill="#3BA9EE"/>
</svg>
