<svg width="117" height="20" viewBox="0 0 117 20" fill="none" xmlns="http://www.w3.org/2000/svg">
<path d="M66.4627 4.95063C66.4627 4.95063 69.064 4.24923 70.6438 6.77562L78.3864 17.5145L86.3674 6.49642C86.3674 6.49642 87.777 4.67143 90.1331 4.98468L79.6871 19.1216C79.6871 19.1216 79.1627 19.966 78.2434 20C78.2434 20 77.6101 20 76.9768 19.0875C76.3435 18.175 66.4627 4.95063 66.4627 4.95063ZM92.1964 5.02554V18.4202C92.1964 18.4202 92.3735 19.8638 94.2734 19.7549V6.60538C94.2734 6.60538 94.2734 5.27068 92.1964 5.02554ZM93.3268 0.381342C92.6391 0.381342 92.0807 1.02826 92.0807 1.81818C92.0807 2.6081 92.6391 3.25502 93.3268 3.25502C94.0146 3.25502 94.573 2.6081 94.573 1.81818C94.573 1.02826 94.0146 0.381342 93.3268 0.381342ZM48.5464 11.9918C48.4988 17.9367 53.6196 17.78 53.6196 17.78H60.6949C65.271 16.6428 64.9373 12.2915 64.9373 12.2915C65.0871 7.52468 60.6949 6.92543 60.6949 6.92543H53.5447C53.5447 6.92543 48.5873 7.41573 48.5533 11.9986L48.5464 11.9918ZM48.5873 7.1161C48.5873 7.1161 50.4804 5.03235 53.5788 4.9983L60.654 5.03916C60.654 5.03916 67.1641 6.08785 67.0551 12.3391C66.9666 17.4804 63.1532 19.5301 60.7289 19.6868H53.5039C53.5039 19.6868 46.2788 19.9523 46.4627 11.9305V0C46.4627 0 48.3558 0.040858 48.5805 1.13721C48.5941 3.13926 48.5805 7.1161 48.5805 7.1161H48.5873ZM25.3595 11.9918C25.3119 17.9367 30.4327 17.78 30.4327 17.78H37.508C42.0841 16.6428 41.7504 12.2915 41.7504 12.2915C41.9002 7.52468 37.508 6.92543 37.508 6.92543H30.3578C30.3578 6.92543 25.4004 7.41573 25.3663 11.9986L25.3595 11.9918ZM25.4004 7.1161C25.4004 7.1161 27.2935 5.03235 30.3919 4.9983L37.4671 5.03916C37.4671 5.03916 43.9772 6.08785 43.8682 12.3391C43.7797 17.4804 39.9663 19.5301 37.542 19.6868H30.317C30.317 19.6868 23.0919 19.9523 23.2758 11.9305V0C23.2758 0 25.1689 0.040858 25.3936 1.13721C25.4072 3.13926 25.3936 7.1161 25.3936 7.1161H25.4004ZM97.1334 11.951C96.7998 19.8093 104.168 19.6799 104.168 19.6799H116.044C115.846 18.0252 114.553 17.9162 114.553 17.9162H104.27C98.9789 17.1399 99.3943 13.2789 99.3943 13.2789L112.428 13.2108C113.422 13.1427 116.405 12.6728 116.378 8.93429C116.35 5.1413 112.428 5.05277 112.428 5.05277H104.304C97.113 5.37283 97.1402 11.951 97.1402 11.951H97.1334ZM99.3874 11.161C99.3874 11.161 99.7484 7.57235 103.834 6.97991H112.026C112.026 6.97991 114.273 6.95948 114.369 8.96152C114.45 10.6367 113.252 11.1066 112.026 11.1406L99.3874 11.1679V11.161ZM7.35476 19.605C8.02211 19.6731 12.8365 19.571 12.8365 19.571C17.3173 19.7072 19.0197 16.3636 19.0197 16.3636C19.3534 18.7062 19.619 18.9036 20.0548 19.2714C20.4906 19.6391 21.8594 19.5369 21.8594 19.5369L20.3204 11.4811C18.9176 4.8621 14.001 5.03235 12.8978 4.89615C11.7947 4.75996 7.41604 4.8621 7.41604 4.8621C-0.169927 5.50221 0.000314123 12.1485 0.000314123 12.1485C0.170556 19.4348 6.68741 19.5369 7.35476 19.605ZM2.1045 12.2097C2.1045 12.2097 2.03641 7.06163 7.41604 6.86415C8.0153 6.72795 11.7266 6.79605 12.8978 6.86415C14.0691 6.93224 18.0459 7.76983 18.08 12.1757C18.114 16.5884 14.9407 17.5894 12.8638 17.6915C10.7936 17.7937 8.15149 17.7596 7.382 17.6915C6.6125 17.6234 2.37008 17.2898 2.1045 12.2097Z" fill="white"/>
</svg>
