<svg width="25" height="30" viewBox="0 0 25 30" fill="none" xmlns="http://www.w3.org/2000/svg">
<path d="M24.3595 4.03231L12.6518 0.0707424C12.463 -0.0235808 12.3686 -0.0235808 12.1798 0.0707424L0.472084 4.03231C0.188834 4.12663 0 4.4096 0 4.69257V14.5022C0 21.7651 5.19293 27.9904 12.2742 29.3109H12.3686H12.463C19.5443 27.8961 24.7372 21.6707 24.7372 14.5022V4.69257C24.8316 4.4096 24.6428 4.12663 24.3595 4.03231ZM23.4154 14.5022C23.4154 21.0105 18.7889 26.6699 12.463 27.8961C6.13709 26.5755 1.51066 21.0105 1.51066 14.5022V5.25851L12.463 1.5799L23.4154 5.25851V14.5022ZM11.1412 17.3319L18.6001 10.1633C18.8834 9.88035 19.3555 9.88035 19.6387 10.1633C19.922 10.4463 19.922 10.9179 19.6387 11.2009L11.7077 18.841C11.6133 18.9354 11.4244 19.0297 11.2356 19.0297C11.0468 19.0297 10.8579 18.9354 10.7635 18.841L6.32592 14.7851C6.04267 14.5022 6.04267 14.0306 6.32592 13.7476C6.60918 13.4646 7.08126 13.4646 7.36452 13.7476L11.1412 17.3319Z" fill="white"/>
</svg>
