<svg width="25" height="25" viewBox="0 0 25 25" fill="none" xmlns="http://www.w3.org/2000/svg">
<path d="M21.3854 4.00874L24.5012 0.896058C24.69 0.707412 24.69 0.330131 24.5012 0.141485C24.3123 -0.0471616 23.9347 -0.0471616 23.7458 0.141485L20.63 3.25414C18.4584 1.27335 15.5315 0.0471558 12.3214 0.0471558C9.11119 0.0471558 6.2787 1.27335 4.01269 3.25414L0.896948 0.141485C0.708115 -0.0471616 0.330459 -0.0471616 0.141625 0.141485C-0.0472084 0.330131 -0.0472084 0.707412 0.141625 0.896058L3.25737 4.00874C1.27462 6.17817 0.0471738 9.10218 0.0471738 12.3092C0.0471738 15.5162 1.27462 18.3459 3.25737 20.6096L0.141625 23.7223C-0.0472084 23.9109 -0.0472084 24.2882 0.141625 24.4768C0.236042 24.5712 0.330424 24.6655 0.519258 24.6655C0.708092 24.6655 0.802531 24.5712 0.896948 24.4768L4.01269 21.3642C6.18428 23.345 9.11119 24.5712 12.3214 24.5712C15.5315 24.5712 18.364 23.345 20.63 21.3642L23.7458 24.4768C23.8402 24.5712 23.9346 24.6655 24.1235 24.6655C24.2179 24.6655 24.4067 24.5712 24.5012 24.4768C24.69 24.2882 24.69 23.9109 24.5012 23.7223L21.3854 20.6096C23.3682 18.4402 24.5955 15.5162 24.5955 12.3092C24.5955 9.10218 23.3682 6.17817 21.3854 4.00874ZM12.4158 1.08472C15.3427 1.08472 17.9864 2.2166 19.9692 4.00874L12.4158 11.5546L4.86247 4.00874C6.84522 2.2166 9.48889 1.08472 12.4158 1.08472ZM4.10709 19.855C2.31317 17.8742 1.18019 15.2332 1.18019 12.3092C1.18019 9.38515 2.31317 6.7441 4.10709 4.76331L11.6604 12.3092L4.10709 19.855ZM12.4158 23.4393C9.48889 23.4393 6.84522 22.3074 4.86247 20.5153L12.4158 12.9694L19.9692 20.5153C17.892 22.3074 15.2483 23.4393 12.4158 23.4393ZM20.63 19.855L13.0767 12.3092L20.63 4.76331C22.424 6.7441 23.557 9.38515 23.557 12.3092C23.557 15.2332 22.424 17.7799 20.63 19.855Z" fill="white"/>
</svg>
