<svg width="64" height="64" viewBox="0 0 64 64" fill="none" xmlns="http://www.w3.org/2000/svg">
<rect width="64" height="64" rx="32" fill="#7CE0DA"/>
<path d="M26.8493 46.45C26.5327 46.45 26.216 46.3334 25.966 46.0834C25.4827 45.6 25.4827 44.8 25.966 44.3167L36.8327 33.45C37.6327 32.65 37.6327 31.35 36.8327 30.55L25.966 19.6834C25.4827 19.2 25.4827 18.4 25.966 17.9167C26.4493 17.4334 27.2493 17.4334 27.7327 17.9167L38.5993 28.7834C39.4493 29.6334 39.9327 30.7834 39.9327 32C39.9327 33.2167 39.466 34.3667 38.5993 35.2167L27.7327 46.0834C27.4827 46.3167 27.166 46.45 26.8493 46.45Z" fill="white" stroke="white" stroke-width="1.66667"/>
</svg>
