<svg width="40" height="40" viewBox="0 0 40 40" fill="none" xmlns="http://www.w3.org/2000/svg">
<path d="M5.54997 14.8493C5.54997 14.5327 5.66664 14.216 5.91664 13.966C6.39997 13.4827 7.19997 13.4827 7.68331 13.966L18.55 24.8327C19.35 25.6327 20.65 25.6327 21.45 24.8327L32.3166 13.966C32.8 13.4827 33.6 13.4827 34.0833 13.966C34.5666 14.4494 34.5666 15.2493 34.0833 15.7327L23.2166 26.5994C22.3666 27.4493 21.2166 27.9327 20 27.9327C18.7833 27.9327 17.6333 27.466 16.7833 26.5993L5.91664 15.7327C5.6833 15.4827 5.54997 15.166 5.54997 14.8493Z" fill="white" stroke="white" stroke-width="1.66667"/>
</svg>
