<svg width="10" height="19" viewBox="0 0 10 19" fill="none" xmlns="http://www.w3.org/2000/svg">
<path d="M1.2475 17.8375C1.0575 17.8375 0.8675 17.7675 0.7175 17.6175C0.4275 17.3275 0.4275 16.8475 0.7175 16.5575L7.2375 10.0375C7.7175 9.5575 7.7175 8.7775 7.2375 8.2975L0.7175 1.7775C0.4275 1.4875 0.4275 1.0075 0.7175 0.7175C1.0075 0.4275 1.4875 0.4275 1.7775 0.7175L8.2975 7.2375C8.8075 7.7475 9.0975 8.4375 9.0975 9.1675C9.0975 9.8975 8.8175 10.5875 8.2975 11.0975L1.7775 17.6175C1.6275 17.7575 1.4375 17.8375 1.2475 17.8375Z" fill="white" stroke="white"/>
</svg>
