<svg width="24" height="24" viewBox="0 0 24 24" fill="none" xmlns="http://www.w3.org/2000/svg">
<path d="M12.0001 17.3498C12.9003 17.3498 13.6301 16.6201 13.6301 15.7198C13.6301 14.8196 12.9003 14.0898 12.0001 14.0898C11.0999 14.0898 10.3701 14.8196 10.3701 15.7198C10.3701 16.6201 11.0999 17.3498 12.0001 17.3498Z" fill="#D1AB49"/>
<path fill-rule="evenodd" clip-rule="evenodd" d="M17.28 8.28V9.53C20.08 9.88 21 11.3 21 14.79V18.65C21 22.75 19.75 24 15.65 24H8.35C4.25 24 3 22.75 3 18.65V14.79C3 11.3 3.92 9.88 6.72 9.53V8.28C6.72 8.1326 6.71896 7.98257 6.7179 7.83065C6.69961 5.19978 6.67736 2 12 2C17.3226 2 17.3004 5.19978 17.2821 7.83065C17.281 7.98257 17.28 8.1326 17.28 8.28ZM8.12 9.44H8.35V9.45H15.65H15.88V8.28C15.88 8.16497 15.8803 8.05145 15.8805 7.9395C15.8868 5.19989 15.891 3.4 12 3.4C8.109 3.4 8.11316 5.19989 8.11948 7.9395C8.11974 8.05145 8.12 8.16497 8.12 8.28V9.44ZM12 12.7C10.34 12.7 8.98 14.05 8.98 15.72C8.98 16.7337 9.48343 17.6355 10.2557 18.1841V19.0614C10.2557 20.0259 11.0375 20.8077 12.002 20.8077C12.9664 20.8077 13.7482 20.0259 13.7482 19.0614V18.1841C14.5183 17.6372 15.02 16.7381 15.02 15.72C15.02 14.06 13.66 12.7 12 12.7Z" fill="#D1AB49"/>
</svg>
