<svg width="128" height="40" viewBox="0 0 128 40" fill="none" xmlns="http://www.w3.org/2000/svg">
<path d="M8 17.0598L20 8L32 17.0598L29.2071 17.0598L29.2071 32L10.2722 32L10.2722 17.0598L8 17.0598Z" stroke="white" stroke-width="2.5" stroke-linecap="round" stroke-linejoin="round"/>
<g clip-path="url(#clip0_934_2574)">
<path d="M64.3432 14.308V18.4109H65.711C65.7309 18.3412 65.7558 18.2715 65.7707 18.1968C66.0542 16.9121 66.7555 15.9063 67.805 15.1346C68.7252 14.4624 69.7648 14.1287 70.8989 14.059C71.8937 13.9993 72.8685 14.0789 73.7987 14.4375C75.7733 15.1993 77.0318 16.6034 77.4048 18.6997C77.743 20.6117 77.1561 22.2698 75.7783 23.6391C74.8681 24.5404 73.7489 25.0084 72.4905 25.1827C71.5405 25.3121 70.6004 25.2823 69.6653 25.0532C67.8995 24.62 66.2681 23.0516 65.8453 21.274C65.7956 21.0648 65.7558 20.8557 65.706 20.6167C65.2683 20.5868 64.8256 20.6067 64.3481 20.6018C64.3233 21.0947 64.3382 21.5777 64.3382 22.0607C64.3382 22.5536 64.3382 23.0466 64.3382 23.5346C64.3382 24.0225 64.3382 24.5005 64.3382 24.9985H61.498V14.318C61.6473 14.2682 64 14.2482 64.3382 14.303L64.3432 14.308ZM71.4609 16.7777C70.9884 16.7677 70.496 16.9022 70.0284 17.1511C68.7153 17.8532 68.1383 19.3968 68.7103 20.7362C69.1729 21.8167 70.2721 22.6134 71.6549 22.5188C72.8138 22.4441 73.6743 21.8864 74.1916 20.8458C74.4652 20.2931 74.5746 19.7055 74.4353 19.0931C74.122 17.7188 72.9432 16.7827 71.4609 16.7777Z" fill="white"/>
<path d="M98.832 14.5654V25.2907H95.9669C95.9669 24.8476 95.9669 24.4044 95.9669 23.9663C95.9669 23.5281 95.9669 23.0949 95.9669 22.6567V18.6982C95.9669 18.6982 95.9371 18.6883 95.9172 18.6833C94.5792 20.8891 93.2412 23.0899 91.9032 25.2957H88.9785V14.6152C89.1377 14.5605 91.6098 14.5505 91.8336 14.6102V21.2078C91.8336 21.2078 91.8584 21.2177 91.8684 21.2227C91.8982 21.1829 91.9331 21.148 91.9579 21.1032C93.2313 19.0069 94.5046 16.9156 95.773 14.8144C95.8824 14.6302 96.0067 14.5654 96.2156 14.5704C96.9966 14.5804 97.7825 14.5704 98.5634 14.5704H98.8369L98.832 14.5654Z" fill="white"/>
<path d="M77.2012 25.2953V22.736C77.3902 22.7609 77.5692 22.8007 77.7483 22.8107C77.9125 22.8157 78.0816 22.8107 78.2407 22.7808C78.6585 22.6962 78.9421 22.4372 79.1062 22.0489C79.2753 21.6555 79.345 21.2372 79.3499 20.814C79.3549 19.6339 79.3549 18.4588 79.3599 17.2787C79.3599 16.4671 79.3599 15.6555 79.3599 14.8439C79.3599 14.7642 79.3698 14.6796 79.3748 14.585H87.7908V25.2904H84.9307C84.9208 24.6032 84.9307 23.9111 84.9258 23.224C84.9258 22.5318 84.9258 21.8397 84.9258 21.1426V19.0613C84.9258 18.3692 84.9258 17.6771 84.9258 16.9899C84.7666 16.9352 82.6029 16.9202 82.2398 16.965C82.2348 17.0397 82.2249 17.1194 82.2249 17.1991C82.2249 18.2397 82.2348 19.2804 82.2249 20.3161C82.2199 20.8837 82.2 21.4513 82.1453 22.014C82.0906 22.6414 81.9215 23.2389 81.6131 23.7916C81.1157 24.6879 80.3447 25.2007 79.345 25.375C78.6834 25.4895 78.0219 25.4547 77.3653 25.3352C77.3106 25.3252 77.2609 25.3053 77.2061 25.2854L77.2012 25.2953Z" fill="white"/>
<path d="M109.473 25.2953H106.618V17.0049H102.733V25.2904H99.9127C99.858 25.131 99.8531 14.804 99.9078 14.585H109.453C109.508 14.7294 109.527 24.9816 109.468 25.2953H109.473Z" fill="white"/>
<path d="M47.71 19.6583C49.2817 21.5305 50.8485 23.3977 52.4402 25.2948C52.3208 25.2998 52.2562 25.3048 52.1865 25.3048C51.1072 25.3048 50.0229 25.3048 48.9435 25.3048C48.7893 25.3048 48.6948 25.255 48.5953 25.1355C47.4662 23.7114 46.3322 22.2973 45.2031 20.8782C45.1683 20.8384 45.1334 20.7986 45.0638 20.7239V25.26C44.8947 25.3148 42.4972 25.3297 42.2286 25.2849C42.1789 25.1156 42.1739 14.7836 42.2286 14.5795H45.0539C45.0638 15.0625 45.0539 15.5355 45.0539 16.0085C45.0539 16.4865 45.0539 16.9645 45.0539 17.4426V18.9164C45.1135 18.8567 45.1484 18.8218 45.1782 18.782C46.2426 17.4326 47.3071 16.0832 48.3616 14.7289C48.4561 14.6044 48.5555 14.5596 48.7097 14.5596C49.7344 14.5645 50.759 14.5596 51.7836 14.5596C51.8483 14.5596 51.9179 14.5645 52.0323 14.5695C50.57 16.2824 49.1375 17.9554 47.6901 19.6484L47.71 19.6583Z" fill="white"/>
<path d="M123.897 14.5654C125.269 18.1405 126.637 21.7007 128 25.2609C127.826 25.3156 125.399 25.3356 124.946 25.2907C124.727 24.7131 124.503 24.1206 124.28 23.5281H120.34C120.101 24.1107 119.858 24.6982 119.609 25.2957H116.59C116.615 25.221 116.63 25.1563 116.655 25.0965C117.46 23.0401 118.266 20.9837 119.067 18.9273C119.599 17.5629 120.136 16.1936 120.669 14.8293C120.768 14.5704 120.768 14.5704 121.037 14.5704C121.902 14.5704 122.768 14.5704 123.633 14.5704C123.708 14.5704 123.782 14.5704 123.887 14.5704L123.897 14.5654ZM121.161 21.3173C121.439 21.377 123.34 21.3621 123.494 21.3024C123.106 20.2119 122.718 19.1165 122.33 18.026C122.315 18.026 122.305 18.031 122.29 18.036C121.917 19.1264 121.539 20.2169 121.161 21.3223V21.3173Z" fill="white"/>
<path d="M52.624 14.5801H55.4692C55.4692 15.9643 55.4692 17.3386 55.4692 18.7378C55.5686 18.7427 55.6482 18.7577 55.7278 18.7577C56.3247 18.7577 56.9216 18.7477 57.5135 18.7726C58.2198 18.8025 58.9012 18.9519 59.518 19.3054C60.3685 19.7934 60.8112 20.5452 60.9455 21.5012C61.0102 21.9743 60.9903 22.4423 60.8858 22.9054C60.667 23.8813 60.0651 24.5336 59.1598 24.917C58.6724 25.1261 58.1551 25.2357 57.6279 25.2656C57.1653 25.2905 56.7027 25.3054 56.2401 25.3104C55.116 25.3153 53.9969 25.3104 52.8727 25.3104H52.634C52.5743 25.1311 52.5693 14.8091 52.624 14.5851V14.5801ZM55.4841 23.1295C55.6582 23.1295 55.8074 23.1295 55.9566 23.1295C56.3446 23.1195 56.7325 23.1245 57.1155 23.0846C57.6677 23.0349 57.991 22.7112 58.0556 22.1734C58.1004 21.8 58.0308 21.4564 57.7124 21.2025C57.4786 21.0183 57.2051 20.9485 56.9216 20.9386C56.4988 20.9236 56.076 20.9286 55.6532 20.9286C55.5985 20.9286 55.5487 20.9386 55.4841 20.9485V23.1245V23.1295Z" fill="white"/>
<path d="M64.452 10.5318C64.3923 10.5666 64.3326 10.6114 64.2679 10.6413C63.6362 10.955 62.9647 11.1442 62.2883 11.3185C61.5273 11.5127 60.7613 11.6621 59.9804 11.7318C59.2293 11.8015 58.4882 11.7168 57.752 11.5625C56.7324 11.3484 55.7525 10.9948 54.8074 10.5616C53.7032 10.0587 52.6139 9.52595 51.5196 9.00811C50.1319 8.34587 48.7193 7.7384 47.242 7.30521C46.3964 7.06122 45.5409 6.92678 44.6605 6.9716C43.8697 7.01641 43.0937 7.16081 42.3377 7.39981C42.2432 7.42969 42.1437 7.4496 42.0492 7.4745C42.0442 7.45956 42.0343 7.44961 42.0293 7.43467C42.084 7.38487 42.1338 7.33508 42.1934 7.29027C43.6707 6.16496 45.327 5.43301 47.1674 5.12429C47.9782 4.98487 48.7889 4.97492 49.6096 5.03467C50.3309 5.08446 51.0421 5.15915 51.7484 5.31848C52.7383 5.53757 53.6535 5.95085 54.5189 6.46869C55.7326 7.19566 56.9263 7.94753 58.135 8.67948C59.5377 9.52595 61.0547 10.0737 62.6812 10.2928C63.2035 10.3625 63.7258 10.3973 64.248 10.4521C64.3127 10.4571 64.3774 10.472 64.442 10.482C64.442 10.4969 64.447 10.5168 64.452 10.5318Z" fill="white"/>
<path d="M110.238 16.9551V14.585H117.714V16.9501C117.326 16.9501 116.943 16.9501 116.56 16.9551C116.182 16.9551 115.804 16.9551 115.401 16.9551V25.2904H112.561V16.975C112.158 16.9352 111.78 16.9601 111.402 16.9551C111.024 16.9551 110.641 16.9551 110.238 16.9551Z" fill="white"/>
<path d="M48.118 34.8204H47.1282C46.8894 34.1731 46.6507 33.5108 46.4069 32.8486H43.6912C43.4474 33.5009 43.2037 34.1581 42.955 34.8204H42C42.8555 32.6245 43.716 30.4486 44.5765 28.2627C44.8899 28.2627 45.1833 28.2627 45.4818 28.2627C45.5813 28.2627 45.6012 28.3424 45.626 28.4121C45.8349 28.9449 46.0438 29.4826 46.2527 30.0154C46.8546 31.549 47.4515 33.0826 48.0484 34.6162C48.0682 34.671 48.0881 34.7307 48.118 34.8204ZM46.1334 32.1067C45.7703 31.1208 45.4221 30.1697 45.0689 29.2137C45.054 29.2137 45.0441 29.2187 45.0291 29.2237C44.671 30.1797 44.3179 31.1357 43.9548 32.1067H46.1334Z" fill="white"/>
<path d="M76.2259 34.2035V34.8059C75.9672 34.9155 75.7086 34.9404 75.44 34.8756C75.1316 34.801 75.0321 34.557 74.9675 34.2582C74.7337 34.5072 74.49 34.6964 74.1915 34.8059C73.6991 34.9952 73.1918 35.025 72.6844 34.8806C71.9383 34.6715 71.6896 34.0391 71.7592 33.4267C71.8289 32.7744 72.2367 32.4059 72.8287 32.2466C73.2465 32.1371 73.6842 32.1022 74.1169 32.0275C74.2811 31.9976 74.4452 31.9727 74.6044 31.9279C74.8232 31.8632 74.9227 31.7039 74.9426 31.4798C74.9724 31.0715 74.7934 30.7976 74.4004 30.6831C74.102 30.5935 73.7986 30.6035 73.4952 30.6532C73.0873 30.723 72.8535 30.9769 72.764 31.3752C72.7491 31.435 72.7391 31.4947 72.7242 31.5694H71.9483C71.9582 31.4549 71.9483 31.3454 71.9731 31.2408C72.1223 30.5387 72.5899 30.1603 73.2564 30.0109C73.7538 29.8964 74.2612 29.9113 74.7586 30.0408C74.8829 30.0757 75.0073 30.1254 75.1266 30.1852C75.5345 30.3844 75.7384 30.723 75.7484 31.1661C75.7583 31.7835 75.7484 32.401 75.7484 33.0134C75.7484 33.2972 75.7384 33.581 75.7484 33.8649C75.7583 34.1437 75.828 34.1985 76.1065 34.1985C76.1413 34.1985 76.1761 34.1985 76.2358 34.2035H76.2259ZM74.9326 32.4159C74.5297 32.63 74.102 32.62 73.6891 32.6997C73.4852 32.7346 73.2813 32.7694 73.0873 32.8391C72.754 32.9586 72.5849 33.1777 72.5899 33.5711C72.5899 33.9296 72.8237 34.1985 73.1868 34.2732C73.7986 34.4026 74.3258 34.2333 74.7337 33.7553C74.8282 33.6458 74.9078 33.4914 74.9227 33.352C74.9525 33.0532 74.9326 32.7495 74.9326 32.4159Z" fill="white"/>
<path d="M65.9346 32.6746H62.3931C62.2787 33.3119 62.6816 34.019 63.2636 34.2231C63.6416 34.3526 64.0246 34.3625 64.4026 34.2132C64.8005 34.0538 64.9597 33.6953 65.094 33.3219H65.865C65.865 33.3767 65.865 33.4165 65.855 33.4513C65.6561 34.2132 65.2134 34.746 64.4175 34.9302C63.945 35.0397 63.4675 35.0248 63.0049 34.8804C62.3882 34.6862 61.9604 34.2729 61.7515 33.6704C61.4481 32.7991 61.463 31.9227 61.8808 31.0862C62.219 30.404 62.7811 30.0107 63.5471 29.9459C63.7809 29.926 64.0196 29.931 64.2484 29.9708C64.895 30.0804 65.3576 30.4489 65.6362 31.0414C65.8749 31.5443 65.9545 32.0821 65.9396 32.6746H65.9346ZM65.094 32.0074C65.0293 31.4646 64.8702 31.0016 64.3728 30.7526C63.8903 30.5136 63.4078 30.5435 62.9651 30.8721C62.6219 31.126 62.3683 31.6837 62.4379 32.0123H65.099L65.094 32.0074Z" fill="white"/>
<path d="M52.3058 32.4606C52.3157 31.8481 52.4401 31.2755 52.8081 30.7726C53.1663 30.2847 53.6587 30.0357 54.2456 29.951C54.5739 29.9013 54.9071 29.9112 55.2354 29.9809C56.0213 30.1403 56.5436 30.6033 56.7823 31.3602C57.031 32.1469 57.0211 32.9486 56.7027 33.7203C56.4043 34.4473 55.8373 34.8456 55.0613 34.9602C54.6734 35.0149 54.2854 35 53.9074 34.8954C53.0121 34.6515 52.5445 34.0241 52.3704 33.1427C52.3257 32.9187 52.3207 32.6896 52.3008 32.4606H52.3058ZM53.1663 32.4456C53.1563 32.849 53.216 33.2274 53.4 33.566C53.6786 34.0838 54.1312 34.293 54.7082 34.278C55.2603 34.2631 55.6731 34.0091 55.887 33.5062C56.1954 32.7942 56.2054 32.0622 55.8671 31.3552C55.6333 30.8672 55.2155 30.6183 54.6684 30.6133C54.1113 30.6083 53.6935 30.8324 53.4199 31.3203C53.221 31.6739 53.1563 32.0573 53.1663 32.4407V32.4456Z" fill="white"/>
<path d="M80.9616 34.8201H80.1856V32.684H77.8578V34.8102H77.0371V30.0898H77.8479V31.9322H80.1707V30.0898H80.9467C80.9964 30.2442 81.0063 34.5463 80.9566 34.8201H80.9616Z" fill="white"/>
<path d="M70.004 30.8069H67.6563C67.6414 31.245 67.6563 31.6882 67.6513 32.1264C67.6513 32.5745 67.6513 33.0276 67.6513 33.4757V34.8152H66.8555V30.0898H70.765C70.8148 30.2392 70.8297 34.4666 70.7849 34.8152H70.009V30.8118L70.004 30.8069Z" fill="white"/>
<path d="M47.7344 30.7969V30.0898H51.9175V30.782C51.3654 30.8069 50.8133 30.782 50.2313 30.7969V34.8152H49.4255C49.4206 34.4865 49.4255 34.1579 49.4255 33.8293C49.4255 33.4907 49.4255 33.1521 49.4255 32.8085V30.7969H47.7393H47.7344Z" fill="white"/>
<path d="M85.9155 30.0898V30.7869C85.3585 30.8019 84.8063 30.7869 84.2343 30.7969V34.8102H83.4335V30.7969H81.7324V30.0898H85.9205H85.9155Z" fill="white"/>
<path d="M58.7415 34.8153H57.9258V30.085H61.1837V30.7821C60.9201 30.802 60.6515 30.787 60.3829 30.792C60.1143 30.792 59.8408 30.792 59.5722 30.792C59.3036 30.792 59.035 30.792 58.7365 30.792V34.8153H58.7415Z" fill="white"/>
</g>
<defs>
<clipPath id="clip0_934_2574">
<rect width="86" height="30" fill="white" transform="translate(42 5)"/>
</clipPath>
</defs>
</svg>
