<svg width="220" height="77" viewBox="0 0 220 77" fill="none" xmlns="http://www.w3.org/2000/svg">
<g clip-path="url(#clip0_1091_2237)">
<path d="M57.9579 24.6276V35.1584H61.457C61.5079 34.9795 61.5715 34.8006 61.6097 34.6089C62.335 31.3116 64.1291 28.73 66.8139 26.7491C69.1678 25.0238 71.8272 24.1675 74.7283 23.9886C77.2731 23.8353 79.767 24.0397 82.1464 24.9599C87.1979 26.9153 90.4171 30.5192 91.3714 35.8997C92.2367 40.8072 90.7352 45.063 87.2106 48.5775C84.8821 50.8907 82.0192 52.092 78.8 52.5393C76.3697 52.8716 73.9648 52.7949 71.5727 52.207C67.0556 51.0952 62.8821 47.0695 61.8006 42.507C61.6733 41.9702 61.5715 41.4334 61.4443 40.82C60.3246 40.7433 59.1921 40.7944 57.9706 40.7817C57.907 42.0469 57.9452 43.2866 57.9452 44.5262C57.9452 45.7914 57.9452 47.0567 57.9452 48.3091C57.9452 49.5616 57.9452 50.7885 57.9452 52.0665H50.6797V24.6532C51.0614 24.5254 57.0799 24.4743 57.9452 24.6148L57.9579 24.6276ZM76.1661 30.9665C74.9573 30.941 73.6976 31.2861 72.5015 31.9251C69.1424 33.727 67.6664 37.6889 69.1297 41.1267C70.313 43.9 73.125 45.9448 76.6623 45.702C79.6271 45.5103 81.8283 44.0789 83.1516 41.4079C83.8515 39.9893 84.1314 38.4812 83.7751 36.9093C82.9735 33.382 79.9579 30.9793 76.1661 30.9665Z" fill="white"/>
<path d="M145.386 24.5508V52.0791H138.057C138.057 50.9417 138.057 49.8042 138.057 48.6796C138.057 47.5549 138.057 46.4431 138.057 45.3184V35.1583C138.057 35.1583 137.981 35.1327 137.93 35.1199C134.507 40.7815 131.084 46.4303 127.661 52.0919H120.18V24.6786C120.587 24.538 126.911 24.5124 127.483 24.6658V41.5994C127.483 41.5994 127.547 41.625 127.572 41.6378C127.649 41.5355 127.738 41.4461 127.801 41.331C131.059 35.9506 134.316 30.583 137.561 25.1898C137.841 24.7169 138.159 24.5508 138.693 24.5636C140.691 24.5891 142.701 24.5636 144.699 24.5636H145.399L145.386 24.5508Z" fill="white"/>
<path d="M90.0488 52.0915V45.5226C90.5323 45.5865 90.9904 45.6887 91.4485 45.7143C91.8684 45.727 92.301 45.7143 92.7082 45.6376C93.777 45.4203 94.5023 44.7558 94.9222 43.7589C95.3548 42.7493 95.5329 41.6758 95.5456 40.5894C95.5584 37.5606 95.5584 34.5445 95.5711 31.5156C95.5711 29.4324 95.5711 27.3493 95.5711 25.2661C95.5711 25.0616 95.5965 24.8444 95.6093 24.6016H117.138V52.0787H109.822C109.797 50.3151 109.822 48.5387 109.809 46.775C109.809 44.9986 109.809 43.2221 109.809 41.4329V36.0909C109.809 34.3144 109.809 32.538 109.809 30.7743C109.402 30.6338 103.867 30.5954 102.938 30.7104C102.926 30.9021 102.9 31.1066 102.9 31.3111C102.9 33.9821 102.926 36.6532 102.9 39.3114C102.887 40.7684 102.837 42.2253 102.697 43.6694C102.557 45.2797 102.124 46.8133 101.335 48.2319C100.063 50.5324 98.0905 51.8487 95.5329 52.296C93.8406 52.5899 92.1483 52.5005 90.4687 52.1938C90.3288 52.1682 90.2015 52.1171 90.0616 52.066L90.0488 52.0915Z" fill="white"/>
<path d="M172.602 52.0915H165.299V30.8127H155.361V52.0787H148.147C148.007 51.6698 147.994 25.1639 148.134 24.6016H172.552C172.692 24.9722 172.742 51.2864 172.59 52.0915H172.602Z" fill="white"/>
<path d="M14.6076 37.6249C18.6284 42.4302 22.6365 47.2227 26.7082 52.0919C26.4028 52.1047 26.2374 52.1175 26.0593 52.1175C23.2982 52.1175 20.5243 52.1175 17.7632 52.1175C17.3687 52.1175 17.127 51.9897 16.8725 51.683C13.9841 48.0279 11.083 44.3983 8.19463 40.756C8.10556 40.6538 8.0165 40.5515 7.83836 40.3598V52.0025C7.40574 52.1431 1.27271 52.1814 0.585611 52.0664C0.45837 51.6319 0.445645 25.1132 0.585611 24.5892H7.81291C7.83836 25.8289 7.81291 27.043 7.81291 28.2571C7.81291 29.484 7.81291 30.7109 7.81291 31.9378V35.7207C7.9656 35.5673 8.05467 35.4778 8.13101 35.3756C10.854 31.9122 13.5769 28.4488 16.2744 24.9726C16.5162 24.6531 16.7707 24.5381 17.1651 24.5381C19.7863 24.5509 22.4075 24.5381 25.0286 24.5381C25.1941 24.5381 25.3722 24.5509 25.6648 24.5636C21.924 28.96 18.2594 33.2541 14.5567 37.5993L14.6076 37.6249Z" fill="white"/>
<path d="M209.502 24.5508C213.014 33.7269 216.513 42.8646 220 52.0024C219.554 52.143 213.345 52.1941 212.187 52.0791C211.627 50.5966 211.055 49.0758 210.482 47.5549H200.405C199.794 49.0502 199.17 50.5582 198.534 52.0919H190.811C190.874 51.9002 190.912 51.734 190.976 51.5807C193.037 46.3025 195.099 41.0243 197.147 35.7461C198.509 32.2444 199.883 28.7299 201.244 25.2281C201.499 24.5636 201.499 24.5636 202.186 24.5636C204.4 24.5636 206.614 24.5636 208.828 24.5636C209.019 24.5636 209.21 24.5636 209.477 24.5636L209.502 24.5508ZM202.504 41.8806C203.217 42.0339 208.077 41.9956 208.472 41.8422C207.479 39.0434 206.487 36.2318 205.494 33.4329C205.456 33.4329 205.431 33.4457 205.392 33.4585C204.438 36.2573 203.471 39.0562 202.504 41.8934V41.8806Z" fill="white"/>
<path d="M27.1785 24.5889H34.4567C34.4567 28.1417 34.4567 31.669 34.4567 35.2602C34.7112 35.273 34.9148 35.3114 35.1184 35.3114C36.6453 35.3114 38.1722 35.2858 39.6864 35.3497C41.4932 35.4264 43.2364 35.8098 44.8142 36.7172C46.99 37.9696 48.1224 39.8994 48.466 42.3532C48.6314 43.5673 48.5805 44.7686 48.3133 45.9572C47.7534 48.4621 46.2138 50.1363 43.898 51.1203C42.6511 51.6571 41.3278 51.9382 39.979 52.0149C38.7957 52.0788 37.6123 52.1172 36.429 52.1299C33.5533 52.1427 30.6904 52.1299 27.8147 52.1299H27.204C27.0513 51.6699 27.0386 25.1768 27.1785 24.6016V24.5889ZM34.4949 46.5323C34.9403 46.5323 35.322 46.5323 35.7037 46.5323C36.6962 46.5067 37.6887 46.5195 38.6684 46.4172C40.0808 46.2894 40.9079 45.4587 41.0733 44.0785C41.1878 43.12 41.0097 42.2382 40.1953 41.5864C39.5973 41.1135 38.8975 40.9346 38.1722 40.909C37.0906 40.8707 36.0091 40.8835 34.9275 40.8835C34.7876 40.8835 34.6603 40.909 34.4949 40.9346V46.5195V46.5323Z" fill="white"/>
<path d="M57.4365 14.1992C57.2838 14.2886 57.1311 14.4036 56.9657 14.4803C55.3497 15.2855 53.632 15.7711 51.9015 16.2184C49.9547 16.7168 47.9952 17.1002 45.9975 17.2792C44.0762 17.4581 42.1803 17.2408 40.2971 16.8446C37.6887 16.2951 35.182 15.3877 32.7644 14.2758C29.9397 12.9851 27.1531 11.6176 24.3538 10.2885C20.8038 8.58871 17.1901 7.02954 13.411 5.91767C11.2479 5.29145 9.0594 4.94639 6.80723 5.06141C4.7841 5.17643 2.79913 5.54705 0.865067 6.1605C0.623309 6.23718 0.368827 6.2883 0.127068 6.3522C0.114344 6.31386 0.088896 6.2883 0.0761719 6.24996C0.216137 6.12216 0.343378 5.99435 0.496068 5.87933C4.27513 2.99103 8.51226 1.11236 13.2202 0.319998C15.2942 -0.0378447 17.3682 -0.0634048 19.4677 0.0899561C21.3127 0.217757 23.1323 0.409458 24.9391 0.818421C27.4712 1.38074 29.8124 2.44149 32.0264 3.77062C35.1311 5.63651 38.1849 7.5663 41.2769 9.44498C44.8651 11.6176 48.7459 13.0234 52.9067 13.5857C54.2427 13.7646 55.5788 13.8541 56.9148 13.9947C57.0802 14.0075 57.2456 14.0458 57.411 14.0714C57.411 14.1097 57.4238 14.1608 57.4365 14.1992Z" fill="white"/>
<path d="M174.562 30.6849V24.6016H193.687V30.6721C192.694 30.6721 191.715 30.6721 190.735 30.6849C189.768 30.6849 188.801 30.6849 187.77 30.6849V52.0787H180.505V30.736C179.474 30.6338 178.507 30.6977 177.54 30.6849C176.573 30.6849 175.593 30.6849 174.562 30.6849Z" fill="white"/>
<path d="M15.6507 76.5404H13.1186C12.5078 74.8789 11.897 73.1792 11.2736 71.4794H4.3262C3.70272 73.1536 3.07924 74.8406 2.44303 76.5404H0C2.18855 70.9043 4.38982 65.3194 6.59109 59.709C7.39271 59.709 8.14343 59.709 8.90688 59.709C9.16136 59.709 9.21226 59.9135 9.27588 60.0924C9.81029 61.4599 10.3447 62.8401 10.8791 64.2076C12.4187 68.1438 13.9456 72.0801 15.4725 76.0164C15.5234 76.1569 15.5743 76.3103 15.6507 76.5404ZM10.5737 69.5752C9.64488 67.0447 8.75419 64.6038 7.85078 62.15C7.81261 62.15 7.78716 62.1628 7.74899 62.1755C6.83285 64.6293 5.92944 67.0831 5.00058 69.5752H10.5737Z" fill="white"/>
<path d="M87.5545 74.9554V76.5018C86.8929 76.7829 86.2312 76.8468 85.5441 76.6807C84.7552 76.489 84.5007 75.8628 84.3353 75.096C83.7373 75.735 83.1138 76.2206 82.3504 76.5018C81.0907 76.9874 79.7928 77.0641 78.4949 76.6935C76.5863 76.1567 75.9501 74.5337 76.1283 72.9617C76.3064 71.2875 77.3498 70.3418 78.8639 69.9328C79.9328 69.6517 81.0525 69.5622 82.1595 69.3705C82.5794 69.2938 82.9993 69.2299 83.4065 69.1149C83.9663 68.9488 84.2208 68.5398 84.2717 67.9647C84.348 66.9167 83.89 66.2138 82.8848 65.9199C82.1213 65.6898 81.3451 65.7154 80.569 65.8432C79.5256 66.0221 78.9276 66.6739 78.6985 67.6963C78.6604 67.8497 78.6349 68.003 78.5967 68.1947H76.6118C76.6372 67.9008 76.6118 67.6196 76.6754 67.3512C77.0571 65.5493 78.2532 64.578 79.9582 64.1946C81.2306 63.9006 82.5285 63.939 83.8009 64.2712C84.119 64.3607 84.4371 64.4885 84.7425 64.6419C85.7859 65.1531 86.3076 66.0221 86.333 67.1595C86.3584 68.7443 86.333 70.329 86.333 71.901C86.333 72.6294 86.3076 73.3579 86.333 74.0864C86.3584 74.802 86.5366 74.9426 87.2491 74.9426C87.3382 74.9426 87.4273 74.9426 87.58 74.9554H87.5545ZM84.2462 70.3673C83.2156 70.9169 82.1213 70.8913 81.0652 71.0958C80.5435 71.1853 80.0218 71.2747 79.5256 71.4537C78.6731 71.7604 78.2405 72.3227 78.2532 73.3323C78.2532 74.2525 78.8512 74.9426 79.7801 75.1343C81.3451 75.4666 82.6939 75.0321 83.7373 73.8052C83.979 73.524 84.1826 73.1278 84.2208 72.77C84.2971 72.0032 84.2462 71.2236 84.2462 70.3673Z" fill="white"/>
<path d="M61.2285 71.0317H52.169C51.8763 72.6676 52.907 74.4823 54.3957 75.0063C55.3627 75.3386 56.3425 75.3642 57.3095 74.9808C58.3274 74.5718 58.7346 73.6516 59.0782 72.6931H61.0504C61.0504 72.8337 61.0504 72.9359 61.0249 73.0254C60.516 74.9808 59.3835 76.3482 57.3477 76.8211C56.1389 77.1023 54.9174 77.0639 53.734 76.6933C52.1562 76.1949 51.062 75.1341 50.5275 73.5877C49.7514 71.3512 49.7895 69.1019 50.8584 66.9549C51.7236 65.204 53.1614 64.1944 55.121 64.0282C55.719 63.9771 56.3297 63.9899 56.9151 64.0921C58.5692 64.3733 59.7525 65.319 60.4651 66.8398C61.0758 68.1306 61.2794 69.5109 61.2413 71.0317H61.2285ZM59.0782 69.3192C58.9127 67.9262 58.5056 66.7376 57.2332 66.0986C55.9989 65.4852 54.7647 65.5618 53.6322 66.4053C52.7543 67.0571 52.1053 68.4885 52.2835 69.332H59.0909L59.0782 69.3192Z" fill="white"/>
<path d="M26.3643 70.483C26.3897 68.911 26.7078 67.4413 27.6494 66.1505C28.5656 64.8981 29.8252 64.2591 31.3267 64.0418C32.1665 63.914 33.019 63.9395 33.8588 64.1185C35.8692 64.5274 37.2052 65.716 37.816 67.6586C38.4522 69.6778 38.4268 71.7354 37.6124 73.7163C36.849 75.5822 35.3984 76.6046 33.4134 76.8986C32.421 77.0391 31.4285 77.0008 30.4615 76.7324C28.1711 76.1062 26.975 74.4959 26.5297 72.2338C26.4152 71.6587 26.4025 71.0708 26.3516 70.483H26.3643ZM28.5656 70.4446C28.5401 71.4798 28.6928 72.4511 29.1636 73.3201C29.8761 74.6493 31.034 75.186 32.51 75.1477C33.9224 75.1093 34.9785 74.4576 35.5257 73.1668C36.3145 71.3392 36.34 69.4605 35.4748 67.6458C34.8767 66.3933 33.8079 65.7543 32.4082 65.7415C30.9831 65.7288 29.9143 66.3039 29.2145 67.5563C28.7055 68.4637 28.5401 69.4478 28.5656 70.4318V70.4446Z" fill="white"/>
<path d="M99.6682 76.5405H97.6833V71.0578H91.7284V76.5149H89.6289V64.3994H91.7029V69.128H97.6451V64.3994H99.6301C99.7573 64.7956 99.7827 75.8376 99.6555 76.5405H99.6682Z" fill="white"/>
<path d="M71.6364 66.2397H65.6306C65.5924 67.3644 65.6306 68.5018 65.6179 69.6265C65.6179 70.7767 65.6179 71.9397 65.6179 73.0899V76.5277H63.582V64.3994H73.5832C73.7104 64.7828 73.7486 75.6331 73.6341 76.5277H71.6491V66.2525L71.6364 66.2397Z" fill="white"/>
<path d="M14.6709 66.2142V64.3994H25.3719V66.1758C23.9595 66.2397 22.5471 66.1758 21.0584 66.2142V76.5277H18.9971C18.9844 75.6842 18.9971 74.8407 18.9971 73.9973C18.9971 73.1282 18.9971 72.2592 18.9971 71.3773V66.2142H14.6836H14.6709Z" fill="white"/>
<path d="M112.342 64.3994V66.1886C110.917 66.227 109.504 66.1886 108.041 66.2142V76.5149H105.992V66.2142H101.641V64.3994H112.354H112.342Z" fill="white"/>
<path d="M42.8289 76.5278H40.7422V64.3867H49.0765V66.1759C48.4021 66.227 47.715 66.1887 47.0279 66.2015C46.3408 66.2015 45.641 66.2015 44.9539 66.2015C44.2668 66.2015 43.5797 66.2015 42.8162 66.2015V76.5278H42.8289Z" fill="white"/>
</g>
<defs>
<clipPath id="clip0_1091_2237">
<rect width="220" height="77" fill="white"/>
</clipPath>
</defs>
</svg>
