<svg width="419" height="146" viewBox="0 0 419 146" fill="none" xmlns="http://www.w3.org/2000/svg">
<g clip-path="url(#clip0_360_1530)">
<path d="M110.384 46.6958V66.6632H117.049C117.146 66.324 117.267 65.9847 117.339 65.6212C118.721 59.3693 122.138 54.4744 127.251 50.7183C131.734 47.447 136.799 45.8234 142.324 45.4841C147.171 45.1934 151.921 45.5811 156.453 47.3258C166.073 51.0334 172.204 57.8669 174.022 68.0687C175.67 77.3739 172.81 85.4433 166.098 92.1072C161.663 96.4933 156.21 98.7711 150.079 99.6193C145.45 100.249 140.87 100.104 136.314 98.9892C127.711 96.881 119.763 89.2478 117.703 80.5968C117.461 79.5791 117.267 78.5613 117.024 77.3982C114.892 77.2528 112.735 77.3497 110.409 77.3255C110.287 79.7245 110.36 82.075 110.36 84.4256C110.36 86.8246 110.36 89.2236 110.36 91.5983C110.36 93.9731 110.36 96.2994 110.36 98.7227H96.5227V46.7442C97.2497 46.5019 108.712 46.405 110.36 46.6715L110.384 46.6958ZM145.063 58.715C142.76 58.6666 140.361 59.3208 138.083 60.5324C131.686 63.9492 128.875 71.4612 131.661 77.9798C133.915 83.2382 139.271 87.1153 146.008 86.6549C151.654 86.2914 155.847 83.5774 158.367 78.5129C159.7 75.8231 160.233 72.9636 159.554 69.9831C158.028 63.2949 152.284 58.7393 145.063 58.715Z" fill="white"/>
<path d="M276.894 46.5504V98.7469H262.935C262.935 96.5902 262.935 94.4335 262.935 92.3011C262.935 90.1686 262.935 88.0604 262.935 85.928V66.6633C262.935 66.6633 262.79 66.6148 262.693 66.5906C256.174 77.3255 249.655 88.0362 243.136 98.7711H228.887V46.7927C229.662 46.5262 241.707 46.4777 242.797 46.7685V78.8764C242.797 78.8764 242.918 78.9248 242.967 78.9491C243.112 78.7552 243.282 78.5856 243.403 78.3675C249.607 68.1657 255.811 57.9881 261.99 47.762C262.523 46.8654 263.129 46.5504 264.147 46.5746C267.952 46.6231 271.781 46.5746 275.585 46.5746H276.918L276.894 46.5504Z" fill="white"/>
<path d="M171.502 98.7711V86.3157C172.422 86.4368 173.295 86.6307 174.167 86.6792C174.967 86.7034 175.791 86.6792 176.566 86.5338C178.602 86.1218 179.983 84.8618 180.783 82.9716C181.607 81.0573 181.946 79.0217 181.971 76.962C181.995 71.2189 181.995 65.5001 182.019 59.757C182.019 55.8071 182.019 51.8573 182.019 47.9074C182.019 47.5197 182.068 47.1077 182.092 46.6473H223.095V98.7469H209.161C209.112 95.4028 209.161 92.0345 209.137 88.6905C209.137 85.3222 209.137 81.9539 209.137 78.5613V68.4322C209.137 65.0639 209.137 61.6956 209.137 58.3515C208.361 58.085 197.819 58.0123 196.05 58.2304C196.026 58.5939 195.978 58.9816 195.978 59.3693C195.978 64.4339 196.026 69.4984 195.978 74.5388C195.953 77.3012 195.856 80.0637 195.59 82.802C195.323 85.8553 194.499 88.7632 192.997 91.453C190.574 95.8148 186.817 98.3107 181.946 99.1588C178.723 99.7162 175.5 99.5466 172.301 98.965C172.035 98.9165 171.792 98.8196 171.526 98.7227L171.502 98.7711Z" fill="white"/>
<path d="M328.73 98.7711H314.82V58.4242H295.893V98.7469H282.153C281.886 97.9715 281.862 47.7135 282.128 46.6473H328.633C328.899 47.35 328.996 97.2445 328.705 98.7711H328.73Z" fill="white"/>
<path d="M27.8202 71.3401C35.4781 80.4515 43.1117 89.5386 50.8665 98.7711C50.2849 98.7954 49.9698 98.8196 49.6305 98.8196C44.3718 98.8196 39.0889 98.8196 33.8302 98.8196C33.0789 98.8196 32.6185 98.5773 32.1338 97.9957C26.6328 91.0652 21.1075 84.1832 15.6065 77.277C15.4368 77.0832 15.2672 76.8893 14.9279 76.5258V98.6015C14.104 98.8681 2.42336 98.9408 1.11475 98.7227C0.872409 97.8988 0.848175 47.6166 1.11475 46.6231H14.8795C14.9279 48.9736 14.8795 51.2757 14.8795 53.5778C14.8795 55.9041 14.8795 58.2304 14.8795 60.5567V67.7295C15.1703 67.4387 15.3399 67.2691 15.4853 67.0752C20.6713 60.5082 25.8573 53.9413 30.9949 47.3501C31.4553 46.7442 31.94 46.5262 32.6912 46.5262C37.6833 46.5504 42.6755 46.5262 47.6676 46.5262C47.9827 46.5262 48.3219 46.5504 48.8793 46.5746C41.7546 54.9105 34.7753 63.0526 27.7233 71.2916L27.8202 71.3401Z" fill="white"/>
<path d="M399.007 46.5504C405.696 63.9492 412.36 81.2754 419 98.6015C418.152 98.8681 406.326 98.965 404.121 98.7469C403.054 95.9359 401.964 93.0523 400.873 90.1686H381.68C380.517 93.0038 379.33 95.8632 378.118 98.7711H363.408C363.529 98.4076 363.602 98.0926 363.723 97.8018C367.649 87.7939 371.575 77.7859 375.476 67.7779C378.069 61.1383 380.687 54.4744 383.28 47.8347C383.764 46.5746 383.764 46.5746 385.073 46.5746C389.29 46.5746 393.506 46.5746 397.723 46.5746C398.086 46.5746 398.45 46.5746 398.959 46.5746L399.007 46.5504ZM385.679 79.4095C387.036 79.7003 396.293 79.6276 397.044 79.3368C395.154 74.0299 393.264 68.6988 391.374 63.3919C391.301 63.3919 391.252 63.4161 391.18 63.4403C389.362 68.7472 387.52 74.0541 385.679 79.4337V79.4095Z" fill="white"/>
<path d="M51.7631 46.6231H65.6248C65.6248 53.3597 65.6248 60.0478 65.6248 66.8571C66.1094 66.8813 66.4972 66.954 66.8849 66.954C69.793 66.954 72.701 66.9056 75.5848 67.0267C79.026 67.1721 82.346 67.8991 85.351 69.6196C89.4949 71.9944 91.6517 75.6535 92.306 80.3061C92.6211 82.6081 92.5241 84.886 92.0152 87.1396C90.9489 91.8891 88.0167 95.0636 83.6061 96.9295C81.2312 97.9472 78.7109 98.4803 76.1422 98.6257C73.8884 98.7469 71.6347 98.8196 69.381 98.8438C63.9042 98.8681 58.4516 98.8438 52.9748 98.8438H51.8116C51.5208 97.9715 51.4965 47.7378 51.7631 46.6473V46.6231ZM65.6975 88.23C66.5456 88.23 67.2727 88.23 67.9997 88.23C69.8899 88.1816 71.7801 88.2058 73.6461 88.012C76.336 87.7696 77.9112 86.1945 78.2263 83.5774C78.4444 81.76 78.1051 80.088 76.5541 78.8521C75.4152 77.9555 74.0823 77.6163 72.701 77.5678C70.6411 77.4951 68.5813 77.5193 66.5214 77.5193C66.2548 77.5193 66.0125 77.5678 65.6975 77.6163V88.2058V88.23Z" fill="white"/>
<path d="M109.391 26.9222C109.1 27.0918 108.809 27.3099 108.494 27.4553C105.416 28.9819 102.145 29.9027 98.8491 30.7509C95.1413 31.6959 91.4094 32.4229 87.6047 32.7622C83.9454 33.1014 80.3346 32.6895 76.748 31.9383C71.7801 30.8963 67.0061 29.1758 62.4017 27.0676C57.0218 24.6201 51.7146 22.0272 46.3832 19.5071C39.622 16.2842 32.7397 13.3278 25.5423 11.2196C21.4226 10.0322 17.2544 9.37793 12.965 9.59602C9.11185 9.81411 5.3314 10.5169 1.64789 11.68C1.18745 11.8254 0.702775 11.9223 0.242336 12.0435C0.218102 11.9708 0.169635 11.9223 0.145401 11.8496C0.411971 11.6073 0.654308 11.365 0.945112 11.1469C8.14251 5.67038 16.2123 2.10822 25.1788 0.605813C29.1289 -0.0726936 33.0789 -0.121158 37.0775 0.16963C40.5914 0.411954 44.0568 0.775439 47.498 1.55087C52.3205 2.6171 56.7795 4.62839 60.9961 7.14855C66.9091 10.6865 72.7252 14.3456 78.614 17.9077C85.4479 22.0272 92.8391 24.6928 100.764 25.759C103.308 26.0983 105.853 26.2679 108.397 26.5344C108.712 26.5587 109.027 26.6314 109.342 26.6798C109.342 26.7525 109.366 26.8495 109.391 26.9222Z" fill="white"/>
<path d="M332.462 58.1819V46.6473H368.885V58.1577C366.995 58.1577 365.129 58.1577 363.263 58.1819C361.421 58.1819 359.579 58.1819 357.616 58.1819V98.7469H343.779V58.2788C341.816 58.085 339.974 58.2061 338.132 58.1819C336.291 58.1819 334.425 58.1819 332.462 58.1819Z" fill="white"/>
<path d="M29.8074 145.128H24.9849C23.8217 141.977 22.6585 138.755 21.471 135.532H8.23944C7.052 138.706 5.86455 141.905 4.65286 145.128H0C4.16819 134.441 8.36061 123.852 12.553 113.214C14.0798 113.214 15.5095 113.214 16.9636 113.214C17.4482 113.214 17.5452 113.601 17.6663 113.941C18.6842 116.533 19.702 119.151 20.7198 121.743C23.6521 129.207 26.5601 136.671 29.4681 144.134C29.5651 144.401 29.662 144.691 29.8074 145.128ZM20.1382 131.921C18.3691 127.123 16.6728 122.495 14.9522 117.842C14.8795 117.842 14.831 117.866 14.7583 117.89C13.0135 122.543 11.2929 127.196 9.52383 131.921H20.1382Z" fill="white"/>
<path d="M166.752 142.123V145.055C165.492 145.588 164.232 145.709 162.923 145.394C161.42 145.031 160.936 143.843 160.621 142.389C159.482 143.601 158.294 144.522 156.84 145.055C154.441 145.976 151.969 146.121 149.497 145.418C145.862 144.401 144.651 141.323 144.99 138.343C145.329 135.168 147.316 133.375 150.2 132.599C152.236 132.066 154.368 131.897 156.477 131.533C157.276 131.388 158.076 131.267 158.852 131.049C159.918 130.734 160.403 129.958 160.5 128.868C160.645 126.881 159.773 125.548 157.858 124.991C156.404 124.554 154.926 124.603 153.448 124.845C151.46 125.184 150.321 126.42 149.885 128.359C149.812 128.65 149.764 128.94 149.691 129.304H145.911C145.959 128.747 145.911 128.213 146.032 127.705C146.759 124.288 149.037 122.446 152.284 121.719C154.708 121.162 157.18 121.235 159.603 121.865C160.209 122.034 160.815 122.277 161.396 122.567C163.383 123.537 164.377 125.184 164.425 127.341C164.474 130.346 164.425 133.351 164.425 136.331C164.425 137.713 164.377 139.094 164.425 140.475C164.474 141.832 164.813 142.099 166.17 142.099C166.34 142.099 166.509 142.099 166.8 142.123H166.752ZM160.451 133.423C158.488 134.465 156.404 134.417 154.393 134.805C153.399 134.974 152.405 135.144 151.46 135.483C149.837 136.065 149.013 137.131 149.037 139.045C149.037 140.79 150.176 142.099 151.945 142.462C154.926 143.092 157.495 142.268 159.482 139.942C159.942 139.409 160.33 138.658 160.403 137.979C160.548 136.525 160.451 135.047 160.451 133.423Z" fill="white"/>
<path d="M116.612 134.684H99.358C98.8006 137.785 100.764 141.226 103.599 142.22C105.441 142.85 107.307 142.898 109.148 142.171C111.087 141.396 111.863 139.651 112.517 137.834H116.273C116.273 138.1 116.273 138.294 116.225 138.464C115.255 142.171 113.099 144.764 109.221 145.661C106.919 146.194 104.592 146.121 102.339 145.418C99.3338 144.473 97.2497 142.462 96.2319 139.53C94.7536 135.289 94.8263 131.024 96.8619 126.953C98.5098 123.634 101.248 121.719 104.98 121.404C106.119 121.307 107.282 121.331 108.397 121.525C111.548 122.058 113.801 123.852 115.158 126.735C116.322 129.183 116.709 131.8 116.637 134.684H116.612ZM112.517 131.436C112.202 128.795 111.426 126.541 109.003 125.33C106.652 124.167 104.302 124.312 102.145 125.911C100.473 127.147 99.2368 129.861 99.5761 131.461H112.541L112.517 131.436Z" fill="white"/>
<path d="M50.2121 133.641C50.2606 130.661 50.8665 127.874 52.6597 125.427C54.4046 123.052 56.8037 121.84 59.6633 121.428C61.2627 121.186 62.8864 121.235 64.4858 121.574C68.3147 122.349 70.8592 124.603 72.0224 128.286C73.2341 132.115 73.1857 136.016 71.6347 139.772C70.1807 143.31 67.418 145.249 63.6376 145.806C61.7474 146.073 59.8571 146 58.0154 145.491C53.6533 144.304 51.3754 141.25 50.5272 136.961C50.3091 135.871 50.2848 134.756 50.1879 133.641H50.2121ZM54.4046 133.569C54.3561 135.532 54.6469 137.373 55.5436 139.021C56.9006 141.541 59.1059 142.559 61.917 142.486C64.6069 142.414 66.6183 141.178 67.6604 138.73C69.1629 135.265 69.2113 131.703 67.5634 128.262C66.4245 125.887 64.3888 124.676 61.7231 124.651C59.009 124.627 56.9733 125.717 55.6405 128.092C54.6711 129.813 54.3561 131.679 54.4046 133.545V133.569Z" fill="white"/>
<path d="M189.822 145.128H186.042V134.732H174.7V145.079H170.702V122.107H174.652V131.073H185.969V122.107H189.75C189.992 122.858 190.04 143.795 189.798 145.128H189.822Z" fill="white"/>
<path d="M136.436 125.596H124.997C124.925 127.729 124.997 129.885 124.973 132.018C124.973 134.199 124.973 136.404 124.973 138.585V145.103H121.096V122.107H140.143C140.386 122.834 140.458 143.407 140.24 145.103H136.46V125.621L136.436 125.596Z" fill="white"/>
<path d="M27.9414 125.548V122.107H48.3219V125.475C45.632 125.596 42.942 125.475 40.1067 125.548V145.103H36.1809C36.1566 143.504 36.1809 141.905 36.1809 140.305C36.1809 138.658 36.1809 137.01 36.1809 135.338V125.548H27.9656H27.9414Z" fill="white"/>
<path d="M213.959 122.107V125.499C211.245 125.572 208.555 125.499 205.768 125.548V145.079H201.866V125.548H193.578V122.107H213.983H213.959Z" fill="white"/>
<path d="M81.5705 145.103H77.5962V122.083H93.4692V125.475C92.1849 125.572 90.8762 125.499 89.5676 125.524C88.259 125.524 86.9262 125.524 85.6175 125.524C84.3089 125.524 83.0003 125.524 81.5463 125.524V145.103H81.5705Z" fill="white"/>
</g>
<defs>
<clipPath id="clip0_360_1530">
<rect width="419" height="146" fill="white"/>
</clipPath>
</defs>
</svg>
