<svg width="131" height="132" viewBox="0 0 131 132" fill="none" xmlns="http://www.w3.org/2000/svg">
<path d="M79.0292 4.69829H83.5353C84.8294 4.69829 85.8692 3.65164 85.8692 2.34914C85.8692 1.04665 84.8294 0 83.5353 0H79.0292C77.7352 0 76.6953 1.04665 76.6953 2.34914C76.6953 3.65164 77.7352 4.69829 79.0292 4.69829Z" fill="#F9FBFC"/>
<path d="M74.5234 9.23344C75.8124 9.23344 76.8573 8.1817 76.8573 6.8843C76.8573 5.5869 75.8124 4.53516 74.5234 4.53516C73.2344 4.53516 72.1895 5.5869 72.1895 6.8843C72.1895 8.1817 73.2344 9.23344 74.5234 9.23344Z" fill="#F9FBFC"/>
<path d="M51.9706 13.7925C53.2647 13.7925 54.3046 12.7459 54.3046 11.4434V4.69829H56.4767C57.7708 4.69829 58.8106 3.65164 58.8106 2.34914C58.8106 1.04665 57.7708 0 56.4767 0H54.2121C51.6933 0 49.6367 2.07004 49.6367 4.60525V11.4201C49.6367 12.7226 50.6766 13.7692 51.9706 13.7692V13.7925Z" fill="#F9FBFC"/>
<path d="M65.5117 13.7925C66.8057 13.7925 67.8456 12.7459 67.8456 11.4434V2.34914C67.8456 1.04665 66.8057 0 65.5117 0C64.2176 0 63.1777 1.04665 63.1777 2.34914V11.4434C63.1777 12.7459 64.2176 13.7925 65.5117 13.7925Z" fill="#F9FBFC"/>
<path d="M88.0644 13.792C89.3534 13.792 90.3983 12.7403 90.3983 11.4429C90.3983 10.1455 89.3534 9.09375 88.0644 9.09375C86.7754 9.09375 85.7305 10.1455 85.7305 11.4429C85.7305 12.7403 86.7754 13.792 88.0644 13.792Z" fill="#F9FBFC"/>
<path d="M40.6923 18.3277H47.463C48.757 18.3277 49.7969 17.281 49.7969 15.9785C49.7969 14.676 48.757 13.6294 47.463 13.6294H40.7616V9.23344H42.9338C44.2278 9.23344 45.2677 8.1868 45.2677 6.8843C45.2677 5.58181 44.2278 4.53516 42.9338 4.53516H40.6692C38.1504 4.53516 36.0938 6.60519 36.0938 9.14041V13.6759C36.0938 16.2111 38.1504 18.2811 40.6692 18.2811L40.6923 18.3277Z" fill="#F9FBFC"/>
<path d="M79.0292 18.3272C80.3182 18.3272 81.3632 17.2754 81.3632 15.9781C81.3632 14.6807 80.3182 13.6289 79.0292 13.6289C77.7402 13.6289 76.6953 14.6807 76.6953 15.9781C76.6953 17.2754 77.7402 18.3272 79.0292 18.3272Z" fill="#F9FBFC"/>
<path d="M51.9706 22.8643C53.2596 22.8643 54.3046 21.8126 54.3046 20.5152C54.3046 19.2178 53.2596 18.166 51.9706 18.166C50.6817 18.166 49.6367 19.2178 49.6367 20.5152C49.6367 21.8126 50.6817 22.8643 51.9706 22.8643Z" fill="#F9FBFC"/>
<path d="M65.512 22.8643H72.2133V31.7957H70.0412C68.7471 31.7957 67.7073 32.8423 67.7073 34.1448C67.7073 35.4473 68.7471 36.494 70.0412 36.494H72.2133C72.2596 38.9827 74.2469 41.0062 76.7194 41.0295C76.7656 43.5182 78.7529 45.5417 81.2255 45.5649V47.7513C81.2255 49.0538 82.2654 50.1004 83.5594 50.1004C84.8535 50.1004 85.8934 49.0538 85.8934 47.7513V45.5649H90.2608V50.0306C90.2608 52.5659 92.3174 54.6359 94.8362 54.6359H97.1008C98.3949 54.6359 99.4347 53.5893 99.4347 52.2868C99.4347 50.9843 98.3949 49.9376 97.1008 49.9376H94.9286V45.4719C94.9286 42.96 92.9182 40.8899 90.4226 40.8667V36.4707C92.9182 36.4242 94.9286 34.3774 94.9286 31.8655V20.5152C94.9286 19.2127 93.8888 18.166 92.5947 18.166C91.3007 18.166 90.2608 19.2127 90.2608 20.5152V31.7957C87.7651 31.8422 85.7547 33.889 85.7547 36.401V40.8667H81.3873C81.3411 38.378 79.3538 36.3544 76.8812 36.3312V27.3998H79.0533C80.3474 27.3998 81.3873 26.3531 81.3873 25.0506C81.3873 23.7481 80.3474 22.7015 79.0533 22.7015H76.8812C76.835 20.1895 74.8015 18.166 72.3058 18.166H65.5351C64.241 18.166 63.2012 19.2127 63.2012 20.5152C63.2012 21.8177 64.241 22.8643 65.5351 22.8643H65.512Z" fill="#F9FBFC"/>
<path d="M83.5585 22.8643C84.8475 22.8643 85.8924 21.8126 85.8924 20.5152C85.8924 19.2178 84.8475 18.166 83.5585 18.166C82.2695 18.166 81.2246 19.2178 81.2246 20.5152C81.2246 21.8126 82.2695 22.8643 83.5585 22.8643Z" fill="#F9FBFC"/>
<path d="M47.4628 31.9581C48.7518 31.9581 49.7967 30.9063 49.7967 29.6089C49.7967 28.3115 48.7518 27.2598 47.4628 27.2598C46.1738 27.2598 45.1289 28.3115 45.1289 29.6089C45.1289 30.9063 46.1738 31.9581 47.4628 31.9581Z" fill="#F9FBFC"/>
<path d="M65.5117 31.9581C66.8057 31.9581 67.8456 30.9114 67.8456 29.6089C67.8456 28.3064 66.8057 27.2598 65.5117 27.2598C64.2176 27.2598 63.1777 28.3064 63.1777 29.6089C63.1777 30.9114 64.2176 31.9581 65.5117 31.9581Z" fill="#F9FBFC"/>
<path d="M83.5585 31.9581C84.8475 31.9581 85.8924 30.9063 85.8924 29.6089C85.8924 28.3115 84.8475 27.2598 83.5585 27.2598C82.2695 27.2598 81.2246 28.3115 81.2246 29.6089C81.2246 30.9063 82.2695 31.9581 83.5585 31.9581Z" fill="#F9FBFC"/>
<path d="M2.33392 41.0284C3.62291 41.0284 4.66784 39.9766 4.66784 38.6792C4.66784 37.3818 3.62291 36.3301 2.33392 36.3301C1.04493 36.3301 0 37.3818 0 38.6792C0 39.9766 1.04493 41.0284 2.33392 41.0284Z" fill="#F9FBFC"/>
<path d="M29.3925 41.0284C30.6815 41.0284 31.7264 39.9766 31.7264 38.6792C31.7264 37.3818 30.6815 36.3301 29.3925 36.3301C28.1035 36.3301 27.0586 37.3818 27.0586 38.6792C27.0586 39.9766 28.1035 41.0284 29.3925 41.0284Z" fill="#F9FBFC"/>
<path d="M97.0996 41.0284H101.606C102.9 41.0284 103.94 39.9817 103.94 38.6792C103.94 37.3767 102.9 36.3301 101.606 36.3301H97.0996C95.8055 36.3301 94.7656 37.3767 94.7656 38.6792C94.7656 39.9817 95.8055 41.0284 97.0996 41.0284Z" fill="#F9FBFC"/>
<path d="M121.919 45.564C124.438 45.564 126.494 43.494 126.494 40.9588C126.494 38.4236 124.438 36.3535 121.919 36.3535H115.148C113.854 36.3535 112.814 37.4002 112.814 38.7027C112.814 40.0052 113.854 41.0518 115.148 41.0518H117.321C117.367 43.5638 119.4 45.5873 121.896 45.5873L121.919 45.564Z" fill="#F9FBFC"/>
<path d="M20.3808 45.587C21.6698 45.587 22.7147 44.5352 22.7147 43.2378C22.7147 41.9404 21.6698 40.8887 20.3808 40.8887C19.0918 40.8887 18.0469 41.9404 18.0469 43.2378C18.0469 44.5352 19.0918 45.587 20.3808 45.587Z" fill="#F9FBFC"/>
<path d="M38.4277 45.5643C39.7217 45.5643 40.7616 44.5177 40.7616 43.2152V29.5855C40.7616 28.283 39.7217 27.2363 38.4277 27.2363C37.1336 27.2363 36.0938 28.283 36.0938 29.5855V43.2152C36.0938 44.5177 37.1336 45.5643 38.4277 45.5643Z" fill="#F9FBFC"/>
<path d="M65.5117 45.5638C66.8057 45.5638 67.8456 44.5172 67.8456 43.2147V38.6792C67.8456 37.3767 66.8057 36.3301 65.5117 36.3301C64.2176 36.3301 63.1777 37.3767 63.1777 38.6792V43.2147C63.1777 44.5172 64.2176 45.5638 65.5117 45.5638Z" fill="#F9FBFC"/>
<path d="M110.617 40.8887H106.111C104.817 40.8887 103.777 41.9353 103.777 43.2378C103.777 44.5403 104.817 45.587 106.111 45.587H110.617C111.911 45.587 112.951 44.5403 112.951 43.2378C112.951 41.9353 111.911 40.8887 110.617 40.8887Z" fill="#F9FBFC"/>
<path d="M4.50586 43.2378V47.7733C4.50586 49.0758 5.54573 50.1224 6.83978 50.1224C8.13384 50.1224 9.1737 49.0758 9.1737 47.7733V43.2378C9.1737 41.9353 8.13384 40.8887 6.83978 40.8887C5.54573 40.8887 4.50586 41.9353 4.50586 43.2378Z" fill="#F9FBFC"/>
<path d="M27.082 47.773C27.082 49.0755 28.1219 50.1221 29.416 50.1221H33.922C35.2161 50.1221 36.256 49.0755 36.256 47.773C36.256 46.4705 35.2161 45.4238 33.922 45.4238H29.416C28.1219 45.4238 27.082 46.4705 27.082 47.773Z" fill="#F9FBFC"/>
<path d="M47.4628 45.4249C46.1688 45.4249 45.1289 46.4716 45.1289 47.7741C45.1289 49.0766 46.1688 50.1232 47.4628 50.1232H49.7274C52.2231 50.1232 54.2797 48.0997 54.3028 45.5877H56.475C57.7691 45.5877 58.8089 44.5411 58.8089 43.2386C58.8089 41.9361 57.7691 40.8895 56.475 40.8895H54.3028V36.4935C56.7985 36.447 58.8089 34.4002 58.8089 31.8883V29.6089C58.8089 28.3064 57.7691 27.2598 56.475 27.2598C55.1809 27.2598 54.1411 28.3064 54.1411 29.6089V31.8185C51.6685 31.865 49.6581 33.8653 49.635 36.354H47.4628C46.1688 36.354 45.1289 37.4006 45.1289 38.7031C45.1289 40.0056 46.1688 41.0523 47.4628 41.0523H49.635V45.4482H47.4628V45.4249Z" fill="#F9FBFC"/>
<path d="M60.9824 50.1221C62.2713 50.1221 63.3163 49.0704 63.3163 47.773C63.3163 46.4756 62.2713 45.4238 60.9824 45.4238C59.6934 45.4238 58.6484 46.4756 58.6484 47.773C58.6484 49.0704 59.6934 50.1221 60.9824 50.1221Z" fill="#F9FBFC"/>
<path d="M74.5236 54.6576C75.8177 54.6576 76.8575 53.6109 76.8575 52.3084V50.0291C76.8575 47.4939 74.8009 45.4238 72.2821 45.4238H70.0175C68.7235 45.4238 67.6836 46.4705 67.6836 47.773C67.6836 49.0755 68.7235 50.1221 70.0175 50.1221H72.1897V52.3084C72.1897 53.6109 73.2295 54.6576 74.5236 54.6576Z" fill="#F9FBFC"/>
<path d="M117.459 52.3101C117.459 51.0076 116.419 49.9609 115.125 49.9609H110.619C109.325 49.9609 108.285 51.0076 108.285 52.3101C108.285 53.6126 109.325 54.6592 110.619 54.6592H115.125C116.419 54.6592 117.459 53.6126 117.459 52.3101Z" fill="#F9FBFC"/>
<path d="M38.4278 49.9609C37.1337 49.9609 36.0939 51.0076 36.0939 52.3101V54.4964H29.3925C28.0985 54.4964 27.0586 55.5431 27.0586 56.8456C27.0586 58.1481 28.0985 59.1947 29.3925 59.1947H36.0939V61.381C36.0939 62.6835 37.1337 63.7302 38.4278 63.7302C39.7218 63.7302 40.7617 62.6835 40.7617 61.381V59.1947H42.9339C44.2279 59.1947 45.2678 58.1481 45.2678 56.8456C45.2678 55.5431 44.2279 54.4964 42.9339 54.4964H40.7617V52.3101C40.7617 51.0076 39.7218 49.9609 38.4278 49.9609Z" fill="#F9FBFC"/>
<path d="M128.666 54.5195C127.372 54.5195 126.332 55.5662 126.332 56.8687V59.055H124.16C122.866 59.055 121.826 60.1017 121.826 61.4041C121.826 62.7066 122.866 63.7533 124.16 63.7533H126.425C128.943 63.7533 131 61.6833 131 59.148V56.8687C131 55.5662 129.96 54.5195 128.666 54.5195Z" fill="#F9FBFC"/>
<path d="M2.33392 63.7533C3.62798 63.7533 4.66784 62.7066 4.66784 61.4041V56.8687C4.66784 55.5662 3.62798 54.5195 2.33392 54.5195C1.03987 54.5195 0 55.5662 0 56.8454V61.3809C0 62.6834 1.03987 63.73 2.33392 63.73V63.7533Z" fill="#F9FBFC"/>
<path d="M90.3293 63.7533H92.5939C93.888 63.7533 94.9278 62.7066 94.9278 61.4041C94.9278 60.1017 93.888 59.055 92.5939 59.055H90.4218V56.8687C90.4218 55.5662 89.3819 54.5195 88.0878 54.5195C86.7938 54.5195 85.7539 55.5662 85.7539 56.8687V59.2178C85.8001 61.7298 87.8336 63.7533 90.3293 63.7533Z" fill="#F9FBFC"/>
<path d="M110.619 59.055H103.918V56.8687C103.918 55.5662 102.878 54.5195 101.584 54.5195C100.29 54.5195 99.25 55.5662 99.25 56.8687V59.2178C99.2962 61.7298 101.33 63.7533 103.825 63.7533H110.596C111.89 63.7533 112.93 62.7066 112.93 61.4041C112.93 60.1017 111.89 59.055 110.596 59.055H110.619Z" fill="#F9FBFC"/>
<path d="M85.8932 65.9398C85.8932 64.6373 84.8533 63.5906 83.5592 63.5906H76.8579V61.4043C76.8579 60.1018 75.818 59.0551 74.524 59.0551C73.2299 59.0551 72.19 60.1018 72.19 61.4043V63.5906H63.3165V59.1947H70.0179C71.3119 59.1947 72.3518 58.1481 72.3518 56.8456C72.3518 55.5431 71.3119 54.4964 70.0179 54.4964H67.8457V52.3101C67.8457 51.0076 66.8058 49.9609 65.5118 49.9609C64.2177 49.9609 63.1779 51.0076 63.1779 52.3101V54.4964H58.8104V52.3101C58.8104 51.0076 57.7706 49.9609 56.4765 49.9609C55.1824 49.9609 54.1426 51.0076 54.1426 52.3101V54.6592C54.1888 57.1479 56.1761 59.1714 58.6487 59.1947V68.1261H56.4765C55.1824 68.1261 54.1426 69.1727 54.1426 70.4752C54.1426 71.7777 55.1824 72.8244 56.4765 72.8244H63.1779C63.2241 75.3363 65.2576 77.3599 67.7533 77.3599H70.0179C71.3119 77.3599 72.3518 76.3132 72.3518 75.0107C72.3518 73.7082 71.3119 72.6616 70.0179 72.6616H67.8457V68.2657H83.5592C84.8533 68.2657 85.8932 67.219 85.8932 65.9165V65.9398Z" fill="#F9FBFC"/>
<path d="M2.33296 72.8242H9.03432V75.0105C9.03432 76.313 10.0742 77.3597 11.3682 77.3597C12.6623 77.3597 13.7022 76.313 13.7022 75.0105V68.2655H29.4157C30.7097 68.2655 31.7496 67.2188 31.7496 65.9163C31.7496 64.6138 30.7097 63.5672 29.4157 63.5672H27.2435C27.1973 61.0552 25.1638 59.0317 22.6681 59.0317H18.2314V54.6358H24.9327C26.2268 54.6358 27.2666 53.5891 27.2666 52.2866C27.2666 50.9842 26.2268 49.9375 24.9327 49.9375H18.162C15.6432 49.9375 13.5866 52.0075 13.5866 54.5428V63.5439H9.14986C6.65418 63.5439 4.59755 65.5674 4.57445 68.0794H2.40228C1.10823 68.0794 0.0683594 69.1261 0.0683594 70.4286C0.0683594 71.731 1.10823 72.7777 2.40228 72.7777L2.33296 72.8242Z" fill="#F9FBFC"/>
<path d="M106.111 72.8233C107.4 72.8233 108.445 71.7715 108.445 70.4741C108.445 69.1768 107.4 68.125 106.111 68.125C104.822 68.125 103.777 69.1768 103.777 70.4741C103.777 71.7715 104.822 72.8233 106.111 72.8233Z" fill="#F9FBFC"/>
<path d="M128.666 72.8233C129.955 72.8233 131 71.7715 131 70.4741C131 69.1768 129.955 68.125 128.666 68.125C127.377 68.125 126.332 69.1768 126.332 70.4741C126.332 71.7715 127.377 72.8233 128.666 72.8233Z" fill="#F9FBFC"/>
<path d="M20.3808 77.3819C21.6698 77.3819 22.7147 76.3301 22.7147 75.0327C22.7147 73.7353 21.6698 72.6836 20.3808 72.6836C19.0918 72.6836 18.0469 73.7353 18.0469 75.0327C18.0469 76.3301 19.0918 77.3819 20.3808 77.3819Z" fill="#F9FBFC"/>
<path d="M29.3925 77.3819C30.6815 77.3819 31.7264 76.3301 31.7264 75.0327C31.7264 73.7353 30.6815 72.6836 29.3925 72.6836C28.1035 72.6836 27.0586 73.7353 27.0586 75.0327C27.0586 76.3301 28.1035 77.3819 29.3925 77.3819Z" fill="#F9FBFC"/>
<path d="M49.7737 72.7542V68.2884C52.2693 68.2419 54.2797 66.1952 54.2797 63.6832V61.4038C54.2797 60.1013 53.2399 59.0547 51.9458 59.0547C50.6518 59.0547 49.6119 60.1013 49.6119 61.4038V63.5902H45.1751C42.6795 63.5902 40.6228 65.6137 40.5997 68.1256H33.8984C32.6043 68.1256 31.5645 69.1723 31.5645 70.4748C31.5645 71.7773 32.6043 72.8239 33.8984 72.8239H40.5997C40.6459 75.3359 42.6795 77.3594 45.1751 77.3594C47.6708 77.3594 49.7506 75.2894 49.7506 72.7542H49.7737Z" fill="#F9FBFC"/>
<path d="M79.0292 77.3819C80.3182 77.3819 81.3632 76.3301 81.3632 75.0327C81.3632 73.7353 80.3182 72.6836 79.0292 72.6836C77.7402 72.6836 76.6953 73.7353 76.6953 75.0327C76.6953 76.3301 77.7402 77.3819 79.0292 77.3819Z" fill="#F9FBFC"/>
<path d="M33.9218 81.917H38.4279C39.722 81.917 40.7618 80.8704 40.7618 79.5679C40.7618 78.2654 39.722 77.2188 38.4279 77.2188H33.9218C32.6278 77.2188 31.5879 78.2654 31.5879 79.5679C31.5879 80.8704 32.6278 81.917 33.9218 81.917Z" fill="#F9FBFC"/>
<path d="M74.5234 81.917C75.8124 81.917 76.8573 80.8653 76.8573 79.5679C76.8573 78.2705 75.8124 77.2188 74.5234 77.2188C73.2344 77.2188 72.1895 78.2705 72.1895 79.5679C72.1895 80.8653 73.2344 81.917 74.5234 81.917Z" fill="#F9FBFC"/>
<path d="M101.605 81.917C102.894 81.917 103.939 80.8653 103.939 79.5679C103.939 78.2705 102.894 77.2188 101.605 77.2188C100.316 77.2188 99.2715 78.2705 99.2715 79.5679C99.2715 80.8653 100.316 81.917 101.605 81.917Z" fill="#F9FBFC"/>
<path d="M110.619 81.917C111.908 81.917 112.953 80.8653 112.953 79.5679C112.953 78.2705 111.908 77.2188 110.619 77.2188C109.33 77.2188 108.285 78.2705 108.285 79.5679C108.285 80.8653 109.33 81.917 110.619 81.917Z" fill="#F9FBFC"/>
<path d="M126.425 77.2197H121.988V68.2185C121.988 65.6833 119.932 63.6133 117.413 63.6133H115.148C113.854 63.6133 112.814 64.6599 112.814 65.9624C112.814 67.2649 113.854 68.3116 115.148 68.3116H117.321V72.7075H115.148C113.854 72.7075 112.814 73.7541 112.814 75.0566C112.814 76.3591 113.854 77.4058 115.148 77.4058H117.321C117.367 79.9177 119.4 81.9413 121.896 81.9413H126.333V84.1276C126.333 85.4301 127.373 86.4767 128.667 86.4767C129.961 86.4767 131.001 85.4301 131.001 84.1276V81.8482C131.001 79.313 128.944 77.243 126.425 77.243V77.2197Z" fill="#F9FBFC"/>
<path d="M13.5412 86.3131H11.3691C10.075 86.3131 9.03516 87.3598 9.03516 88.6623C9.03516 89.9648 10.075 91.0114 11.3691 91.0114H13.6337C16.1294 91.0114 18.186 88.9879 18.2091 86.4759H29.4165C30.7106 86.4759 31.7505 85.4293 31.7505 84.1268C31.7505 82.8243 30.7106 81.7777 29.4165 81.7777H27.2444V79.5913C27.2444 78.2888 26.2045 77.2422 24.9104 77.2422C23.6164 77.2422 22.5765 78.2888 22.5765 79.5913V81.7777H18.1398C15.6441 81.7777 13.5875 83.8012 13.5643 86.3131H13.5412Z" fill="#F9FBFC"/>
<path d="M42.9355 86.4522C44.2245 86.4522 45.2694 85.4005 45.2694 84.1031C45.2694 82.8057 44.2245 81.7539 42.9355 81.7539C41.6465 81.7539 40.6016 82.8057 40.6016 84.1031C40.6016 85.4005 41.6465 86.4522 42.9355 86.4522Z" fill="#F9FBFC"/>
<path d="M70.0181 81.7542H58.8106V79.5679C58.8106 78.2654 57.7708 77.2188 56.4767 77.2188C55.1827 77.2188 54.1428 78.2654 54.1428 79.5679V81.7775C51.6471 81.824 49.6367 83.8708 49.6367 86.3827C49.6367 88.8947 51.6933 90.988 54.2121 90.988C56.7309 90.988 58.7644 88.9645 58.7875 86.4525H63.155V88.6388C63.155 89.9413 64.1948 90.988 65.4889 90.988C66.783 90.988 67.8228 89.9413 67.8228 88.6388V86.4525H69.995C71.289 86.4525 72.3289 85.4059 72.3289 84.1034C72.3289 82.8009 71.289 81.7542 69.995 81.7542H70.0181Z" fill="#F9FBFC"/>
<path d="M79.0292 86.4522C80.3182 86.4522 81.3632 85.4005 81.3632 84.1031C81.3632 82.8057 80.3182 81.7539 79.0292 81.7539C77.7402 81.7539 76.6953 82.8057 76.6953 84.1031C76.6953 85.4005 77.7402 86.4522 79.0292 86.4522Z" fill="#F9FBFC"/>
<path d="M115.148 86.4522C116.437 86.4522 117.482 85.4005 117.482 84.1031C117.482 82.8057 116.437 81.7539 115.148 81.7539C113.859 81.7539 112.814 82.8057 112.814 84.1031C112.814 85.4005 113.859 86.4522 115.148 86.4522Z" fill="#F9FBFC"/>
<path d="M2.33425 95.5235C3.62831 95.5235 4.66817 94.4768 4.66817 93.1743V86.4293C7.16385 86.3827 9.17426 84.336 9.17426 81.824C9.17426 79.312 7.11763 77.2188 4.59885 77.2188C2.08006 77.2188 0.0234375 79.2888 0.0234375 81.824V93.1743C0.0234375 94.4768 1.0633 95.5235 2.35736 95.5235H2.33425Z" fill="#F9FBFC"/>
<path d="M70.0175 95.5479C71.3065 95.5479 72.3514 94.4962 72.3514 93.1988C72.3514 91.9014 71.3065 90.8496 70.0175 90.8496C68.7285 90.8496 67.6836 91.9014 67.6836 93.1988C67.6836 94.4962 68.7285 95.5479 70.0175 95.5479Z" fill="#F9FBFC"/>
<path d="M79.0292 95.5479C80.3182 95.5479 81.3632 94.4962 81.3632 93.1988C81.3632 91.9014 80.3182 90.8496 79.0292 90.8496C77.7402 90.8496 76.6953 91.9014 76.6953 93.1988C76.6953 94.4962 77.7402 95.5479 79.0292 95.5479Z" fill="#F9FBFC"/>
<path d="M128.666 90.8496H119.631C118.337 90.8496 117.297 91.8963 117.297 93.1988C117.297 94.5013 118.337 95.5479 119.631 95.5479H128.666C129.96 95.5479 131 94.5013 131 93.1988C131 91.8963 129.96 90.8496 128.666 90.8496Z" fill="#F9FBFC"/>
<path d="M83.5585 100.083C84.8475 100.083 85.8924 99.0313 85.8924 97.7339C85.8924 96.4365 84.8475 95.3848 83.5585 95.3848C82.2695 95.3848 81.2246 96.4365 81.2246 97.7339C81.2246 99.0313 82.2695 100.083 83.5585 100.083Z" fill="#F9FBFC"/>
<path d="M101.605 104.618C102.894 104.618 103.939 103.566 103.939 102.269C103.939 100.972 102.894 99.9199 101.605 99.9199C100.316 99.9199 99.2715 100.972 99.2715 102.269C99.2715 103.566 100.316 104.618 101.605 104.618Z" fill="#F9FBFC"/>
<path d="M126.425 104.479H124.16C122.866 104.479 121.826 105.525 121.826 106.828C121.826 108.13 122.866 109.177 124.16 109.177H126.332V115.922C126.332 117.224 127.372 118.271 128.666 118.271C129.96 118.271 131 117.224 131 115.922V109.107C131 106.572 128.943 104.502 126.425 104.502V104.479Z" fill="#F9FBFC"/>
<path d="M42.9355 118.247C44.2245 118.247 45.2694 117.195 45.2694 115.898C45.2694 114.601 44.2245 113.549 42.9355 113.549C41.6465 113.549 40.6016 114.601 40.6016 115.898C40.6016 117.195 41.6465 118.247 42.9355 118.247Z" fill="#F9FBFC"/>
<path d="M51.9689 118.086H47.4628C46.1688 118.086 45.1289 119.133 45.1289 120.435C45.1289 121.738 46.1688 122.784 47.4628 122.784H51.9689C53.263 122.784 54.3028 121.738 54.3028 120.435C54.3028 119.133 53.263 118.086 51.9689 118.086Z" fill="#F9FBFC"/>
<path d="M88.0647 122.784C89.3588 122.784 90.3986 121.738 90.3986 120.435C90.3986 119.133 89.3588 118.086 88.0647 118.086H76.8573V104.526C76.8573 101.991 74.8007 99.9207 72.2819 99.9207H63.339V97.7344C63.339 96.4319 62.2992 95.3853 61.0051 95.3853C59.711 95.3853 58.6712 96.4319 58.6712 97.7344V99.944C56.1986 99.9905 54.1882 101.991 54.1651 104.479H49.7977V95.4783C49.7977 92.9431 47.741 90.873 45.2222 90.873H29.4394C28.1453 90.873 27.1055 91.9197 27.1055 93.2222C27.1055 94.5247 28.1453 95.5713 29.4394 95.5713H36.1408C36.187 98.0833 38.2205 100.107 40.7162 100.107H45.1529V104.503H42.9808C41.6867 104.503 40.6468 105.549 40.6468 106.852C40.6468 108.154 41.6867 109.201 42.9808 109.201H49.6821V111.387C49.6821 112.69 50.722 113.737 52.016 113.737C53.3101 113.737 54.35 112.69 54.35 111.387V109.201H58.7174V113.597H56.5452C55.2512 113.597 54.2113 114.644 54.2113 115.946C54.2113 117.249 55.2512 118.295 56.5452 118.295H58.7174V122.691H56.5452C55.2512 122.691 54.2113 123.738 54.2113 125.04C54.2113 126.343 55.2512 127.389 56.5452 127.389H58.7174C58.7636 129.901 60.7971 131.925 63.2928 131.925H65.5574C66.8515 131.925 67.8913 130.878 67.8913 129.576C67.8913 128.273 66.8515 127.227 65.5574 127.227H63.3852V104.666H72.2588V109.061H70.0866C68.7925 109.061 67.7527 110.108 67.7527 111.411C67.7527 112.713 68.7925 113.76 70.0866 113.76H72.2588V118.156C69.7631 118.202 67.7527 120.249 67.7527 122.761V125.04C67.7527 126.343 68.7925 127.389 70.0866 127.389C71.3807 127.389 72.4205 126.343 72.4205 125.04V122.854H81.294V127.25H79.1219C77.8278 127.25 76.788 128.297 76.788 129.599C76.788 130.902 77.8278 131.948 79.1219 131.948H88.1572C89.4512 131.948 90.4911 130.902 90.4911 129.599C90.4911 128.297 89.4512 127.25 88.1572 127.25H85.985V122.854H88.1572L88.0647 122.784Z" fill="#F9FBFC"/>
<path d="M124.16 118.085H121.988C121.942 115.596 119.955 113.573 117.482 113.55C117.436 111.061 115.448 109.037 112.976 109.014V104.618H119.677C120.971 104.618 122.011 103.571 122.011 102.269C122.011 100.966 120.971 99.9199 119.677 99.9199H117.505C117.459 97.4312 115.472 95.4076 112.999 95.3844C112.953 92.8724 110.919 90.8489 108.424 90.8489H99.4807C99.4345 88.3602 97.4472 86.3367 94.9746 86.3134V72.8233H97.1468C98.4408 72.8233 99.4807 71.7766 99.4807 70.4741C99.4807 69.1717 98.4408 68.125 97.1468 68.125H88.1115C86.8174 68.125 85.7776 69.1717 85.7776 70.4741C85.7776 71.7766 86.8174 72.8233 88.1115 72.8233H90.2837V77.2192C87.788 77.2657 85.7776 79.3125 85.7776 81.8245V86.2902H83.6054C82.3114 86.2902 81.2715 87.3368 81.2715 88.6393C81.2715 89.9418 82.3114 90.9885 83.6054 90.9885H85.7776C85.8238 93.4772 87.8111 95.5007 90.2837 95.5239V99.9199H88.1115C86.8174 99.9199 85.7776 100.966 85.7776 102.269C85.7776 103.571 86.8174 104.618 88.1115 104.618H90.2837V109.014H88.1115C86.8174 109.014 85.7776 110.061 85.7776 111.363C85.7776 112.666 86.8174 113.712 88.1115 113.712H94.8129V122.714C94.8129 125.249 96.8695 127.319 99.3883 127.319C101.907 127.319 103.941 125.295 103.964 122.783H108.331C108.377 125.295 110.411 127.319 112.907 127.319H117.343V129.505C117.343 130.808 118.383 131.854 119.677 131.854C120.971 131.854 122.011 130.808 122.011 129.505V122.76H124.183C125.477 122.76 126.517 121.713 126.517 120.411C126.517 119.108 125.477 118.062 124.183 118.062L124.16 118.085ZM94.9053 109.014V95.5472H108.285V109.014H94.9053ZM112.814 118.085H99.4345V113.689H112.814V118.085Z" fill="#F9FBFC"/>
<path d="M42.9355 127.343C44.2245 127.343 45.2694 126.291 45.2694 124.994C45.2694 123.696 44.2245 122.645 42.9355 122.645C41.6465 122.645 40.6016 123.696 40.6016 124.994C40.6016 126.291 41.6465 127.343 42.9355 127.343Z" fill="#F9FBFC"/>
<path d="M128.666 127.343C129.955 127.343 131 126.291 131 124.994C131 123.696 129.955 122.645 128.666 122.645C127.377 122.645 126.332 123.696 126.332 124.994C126.332 126.291 127.377 127.343 128.666 127.343Z" fill="#F9FBFC"/>
<path d="M38.4277 131.878C39.7167 131.878 40.7616 130.826 40.7616 129.529C40.7616 128.231 39.7167 127.18 38.4277 127.18C37.1387 127.18 36.0938 128.231 36.0938 129.529C36.0938 130.826 37.1387 131.878 38.4277 131.878Z" fill="#F9FBFC"/>
<path d="M106.111 131.878C107.4 131.878 108.445 130.826 108.445 129.529C108.445 128.231 107.4 127.18 106.111 127.18C104.822 127.18 103.777 128.231 103.777 129.529C103.777 130.826 104.822 131.878 106.111 131.878Z" fill="#F9FBFC"/>
<path d="M10.8605 31.9346H31.7271V10.8155C31.7271 4.86128 26.8513 0.0234375 20.8663 0.0234375H10.8374C4.85238 0.0234375 -0.0234375 4.86128 -0.0234375 10.8155V21.1425C-0.0234375 27.0967 4.85238 31.9578 10.8374 31.9578L10.8605 31.9346ZM4.87549 10.8155C4.87549 7.5593 7.55603 4.93106 10.8374 4.93106H20.8663C24.1708 4.93106 26.8282 7.58256 26.8282 10.8155V27.027H10.8374C7.53292 27.027 4.85238 24.3755 4.85238 21.1425V10.8155H4.87549Z" fill="#F9FBFC"/>
<path d="M120.14 0H110.111C104.126 0 99.25 4.83784 99.25 10.7921V31.9344H120.117C126.102 31.9344 130.977 27.0733 130.977 21.119V10.7921C130.977 4.83784 126.102 0 120.117 0H120.14ZM126.125 21.1423C126.125 24.3985 123.444 27.0268 120.14 27.0268H104.149V10.8154C104.149 7.55913 106.829 4.93088 110.111 4.93088H120.14C123.444 4.93088 126.102 7.58239 126.102 10.8154V21.1423H126.125Z" fill="#F9FBFC"/>
<path d="M0 110.735V121.062C0 127.016 4.87582 131.878 10.8608 131.878H20.8898C26.8748 131.878 31.7506 127.04 31.7506 121.062V99.9199H10.8608C4.87582 99.9199 0 104.781 0 110.735ZM26.8517 104.851V121.062C26.8517 124.318 24.1711 126.947 20.8898 126.947H10.8608C7.55636 126.947 4.89892 124.295 4.89892 121.062V110.735C4.89892 107.479 7.57947 104.851 10.8839 104.851H26.8748H26.8517Z" fill="#F9FBFC"/>
<path d="M12.848 22.8632H22.7152V12.8851C22.7152 10.7918 21.0052 9.11719 18.9023 9.11719H12.848C10.7452 9.11719 9.03516 10.8151 9.03516 12.8851V19.0952C9.03516 21.1885 10.7452 22.8632 12.848 22.8632Z" fill="#F9FBFC"/>
<path d="M118.174 9.09375H112.119C110.017 9.09375 108.307 10.7916 108.307 12.8617V22.863H118.174C120.277 22.863 121.987 21.1651 121.987 19.0718V12.8617C121.987 10.7684 120.277 9.09375 118.174 9.09375Z" fill="#F9FBFC"/>
<path d="M12.848 122.783H18.9023C21.0052 122.783 22.7152 121.085 22.7152 119.015V109.014H12.848C10.7452 109.014 9.03516 110.712 9.03516 112.805V119.015C9.03516 121.108 10.7452 122.783 12.848 122.783Z" fill="#F9FBFC"/>
</svg>
